<?xml version="1.0" encoding="utf-8"?>
<!-- Generator: Adobe Illustrator 18.0.0, SVG Export Plug-In . SVG Version: 6.00 Build 0)  -->
<!DOCTYPE svg PUBLIC "-//W3C//DTD SVG 1.1//EN" "http://www.w3.org/Graphics/SVG/1.1/DTD/svg11.dtd">
<svg version="1.1" xmlns="http://www.w3.org/2000/svg" xmlns:xlink="http://www.w3.org/1999/xlink" x="0px" y="0px"
	 viewBox="0 0 97.5 53.8" enable-background="new 0 0 97.5 53.8" xml:space="preserve">
	<path fill="#A99556" d="M49.7,53.8c-0.9-0.2-1.9-0.4-2.8-0.7c-3.7-1.3-6.9-3.4-10.1-5.6c-0.3-0.2-0.6-0.5-0.9-0.8
		c0.8,0.2,1.5,0.4,2.3,0.5c2.7,0.5,5.5,0.8,8.2,0.7c0.7,0,1.5-0.2,2.2-0.4c0.2,0,0.4-0.2,0.6-0.4c-3.5,0.3-6.7-0.6-9.6-2.7
		c0.6,0,1,0,1.4,0c2.7-0.1,5.1-1.2,7.5-2.4c1.1-0.6,2.3-1.2,3.5-1.5c0.7-0.2,1.5-0.1,2.2,0c2,0.5,2.7,2.5,1.6,4.3
		c-0.2,0.3-0.3,0.5-0.5,0.8c0,0.1,0.1,0.1,0.1,0.2c0.2-0.1,0.5-0.1,0.6-0.3c0.5-0.4,1-0.9,1.4-1.3c0.7-0.7,1.5-1.3,2.5-1.6
		c1.4-0.4,2.5,0.3,3.5,1.3c-1.7,0.5-2.4,2-3.2,3.4c-0.7,1.2-1.5,2.4-2.4,3.5c-1.5,1.8-3.6,2.8-5.9,3.1c-0.2,0-0.3,0.1-0.5,0.1
		C51,53.8,50.3,53.8,49.7,53.8z"/>
	<path fill="#054277" d="M97.5,17.9c-0.9,3.3-3.4,4.8-6.3,6.1c-2.7,1.2-5.5,1.8-8.3,2.2c-0.5,0.1-0.7,0.2-0.8,0.7
		c-0.1,1.5-0.3,2.9-0.1,4.4c0.3,2.4,1.9,3.5,4.3,3.2c2.1-0.2,3.8-1.1,5.3-2.5c0.8-0.7,1.4-1.5,2.1-2.2c0.1-0.1,0.2-0.2,0.2-0.3
		c0.3-0.3,0.6-0.5,1-0.2c0.4,0.3,0.3,0.7,0.1,1c-0.6,0.8-1.2,1.6-1.9,2.3c-2.7,2.8-5.9,4.2-9.8,3.8c-3.1-0.3-5.3-2.3-5.6-5.4
		c-0.4-3.7,0.6-7,2.5-10.1c2.2-3.4,5-5.9,9-7c1.8-0.5,3.6-0.6,5.4-0.1c1.4,0.4,2.4,1.2,2.7,2.7c0,0.1,0.1,0.1,0.1,0.2
		C97.5,17,97.5,17.5,97.5,17.9z M82.8,24.7c0.1,0,0.1,0.1,0.1,0.1c3.1-0.4,6-1.3,8.5-3.2c1.3-1,2.3-2.3,2.5-4
		c0.2-2-0.8-3.1-2.8-2.6c-0.9,0.2-1.9,0.6-2.6,1.2c-2.9,2.1-4.6,4.9-5.7,8.3C82.8,24.5,82.8,24.6,82.8,24.7z"/>
	<path fill="#054277" d="M10.5,36.2C7.7,36.1,5.3,36,3,35.9c-0.4,0-0.8,0-0.9-0.5c-0.1-0.5,0.2-0.7,0.6-0.9
		c1.6-0.9,2.7-2.3,3.7-3.8c1.7-2.7,2.8-5.7,3.9-8.6c1.2-3.3,2.5-6.6,3.8-9.8c0.9-2.1,2.1-4.1,3.9-5.7c1.4-1.3,3.1-2.1,5.1-2.4
		c0.2,0,0.4-0.1,0.5,0c0.1,0,0.3,0.1,0.4,0.2c0,0.1-0.1,0.3-0.1,0.4c0,0.1-0.1,0.1-0.1,0.1c-2.3,1.7-3.6,4-4.6,6.5
		c-1.5,3.8-2.9,7.7-4.4,11.5c-0.7,1.8-1.4,3.7-2.2,5.5c-0.9,1.9-2.2,3.6-3.8,4.9c-0.2,0.1-0.4,0.5-0.3,0.6c0.1,0.2,0.4,0.4,0.6,0.4
		c4.9,0.4,9.9,0.5,14.6-1.3c5.9-2.1,9.3-6.4,10.3-12.6c0.5-3.2,0.3-6.3-0.7-9.3c-1.5-4.4-4.6-7.3-9-8.7C18.9,1,13.8,1.3,8.9,3.5
		c-4.8,2.2-7.3,6.8-6.8,11.9c0,0.4,0.2,0.8,0.2,1.2c0,0.2-0.1,0.6-0.2,0.6c-0.2,0.1-0.6,0-0.7-0.1c-0.3-0.3-0.4-0.6-0.6-1
		c-1.3-3-1.1-5.9,0.6-8.7C3.2,4.5,5.9,2.6,9,1.6C15.4-0.5,21.8-0.6,28,2c6,2.5,9.7,7.1,10.5,13.7c0.9,7.3-2.8,14.1-9.3,17.4
		c-3.6,1.8-7.5,2.7-11.5,2.9C15.2,36.2,12.6,36.2,10.5,36.2z"/>
	<path fill="#054277" d="M46.4,36.2c-2.1,0.1-4-0.4-5.5-1.9c-1.3-1.3-1.8-2.9-1.9-4.6c-0.6-6.8,4.5-14.1,11.1-15.9
		c1.9-0.5,3.9-0.6,5.8,0c2.8,0.8,4.2,2.8,4.6,5.6c0.5,3.8-0.5,7.2-2.6,10.3c-2.2,3.3-5.2,5.6-9.2,6.4c-0.3,0.1-0.6,0.1-1,0.2
		C47.2,36.3,46.8,36.2,46.4,36.2z M43.2,29c0,1.3,0.1,2.5,0.6,3.6c0.7,1.6,2.1,2.4,3.8,2.1c2.1-0.3,3.6-1.6,4.8-3.2
		c2.4-3.1,3.7-6.6,4-10.4c0.1-1.4,0-2.8-0.5-4.1c-0.7-1.8-2.1-2.5-4-2c-0.9,0.3-1.9,0.7-2.6,1.3C45.3,19.6,43.5,24,43.2,29z"/>
	<path fill="#054277" d="M67.5,24.5c-0.1,2.2-0.3,4.5-0.4,6.7c0,0.3,0.1,0.6,0.2,1c0.4-0.1,0.8-0.1,1-0.3c1-1,2-1.9,2.9-3
		c3-3.7,5-7.9,5.7-12.7c0.1-0.6,0-1.3,0-1.9c0-0.1,0-0.4,0.1-0.4c0.5-0.4,1.2-0.5,1.8-0.3c0.6,0.2,0.8,0.7,0.7,1.3
		c-0.2,1.1-0.3,2.3-0.6,3.3c-2.3,6.5-6,12-11.3,16.3c-0.9,0.7-1.9,1.4-3,1.6c-1,0.2-1.6-0.2-1.7-1.2c-0.1-1,0-2.1,0-3.2
		c0.3-3.5,0.6-7,0.4-10.6c-0.1-1.5-0.4-3.1-0.7-4.6c-0.2-0.8-0.8-1.4-1.2-2.1c-0.1-0.1-0.2-0.3-0.3-0.4c0.2-0.1,0.3-0.2,0.5-0.2
		c2.1-0.4,4.2,0.8,5.1,2.8c0.7,1.7,0.7,3.5,0.8,5.3C67.5,22.8,67.4,23.7,67.5,24.5C67.5,24.5,67.5,24.5,67.5,24.5z"/>
</svg>
