<?xml version="1.0" encoding="utf-8"?>
<!-- Generator: Adobe Illustrator 18.0.0, SVG Export Plug-In . SVG Version: 6.00 Build 0)  -->
<!DOCTYPE svg PUBLIC "-//W3C//DTD SVG 1.1//EN" "http://www.w3.org/Graphics/SVG/1.1/DTD/svg11.dtd">
<svg version="1.1" xmlns="http://www.w3.org/2000/svg" xmlns:xlink="http://www.w3.org/1999/xlink" x="0px" y="0px"
	 viewBox="0 0 114 34.9" enable-background="new 0 0 114 34.9" xml:space="preserve">
<path d="M93.8,15c-0.4,0-0.8,0-1.1,0c-0.2,0-0.3-0.1-0.3-0.3c0-0.7,0-1.4,0-2.1c0-0.2,0.1-0.3,0.3-0.3c0.4,0,0.7,0,1.1,0
	c0-0.2,0-0.4,0-0.5c0-0.5,0.1-1.1,0.2-1.6c0.4-1.3,1.3-2,2.5-2.2c1-0.2,1.9-0.1,2.9,0.2c0.2,0,0.2,0.1,0.2,0.3c0,0.7,0,1.3,0,2
	c0,0.2-0.1,0.3-0.3,0.2c-0.5-0.2-1-0.3-1.6-0.2c-0.6,0.1-0.9,0.4-1,1c0,0.3,0,0.6-0.1,0.9c0.1,0,0.2,0,0.3,0c1.3,0,2.7,0,4,0
	c0.2,0,0.3,0.1,0.4,0.2c0.9,2.5,1.9,4.9,2.8,7.4c0,0.1,0.1,0.1,0.1,0.3c0.1-0.2,0.1-0.4,0.2-0.6c0.8-2.4,1.6-4.7,2.5-7.1
	c0.1-0.2,0.1-0.2,0.3-0.2c0.8,0,1.6,0,2.4,0c0.3,0,0.4,0.1,0.3,0.4c-1.1,2.9-2.2,5.8-3.3,8.6c-0.4,1.1-0.9,2.3-1.3,3.4
	c-0.3,0.7-0.7,1.3-1.2,1.8c-0.6,0.6-1.4,0.8-2.2,0.8c-1,0-2-0.2-2.8-0.6c-0.2-0.1-0.2-0.2-0.1-0.4c0.3-0.6,0.5-1.1,0.8-1.7
	c0.1-0.2,0.2-0.3,0.4-0.1c0.4,0.2,0.8,0.3,1.2,0.4c0.6,0,1-0.2,1.2-0.7c0.2-0.3,0.2-0.5,0.1-0.8c-1.2-2.7-2.3-5.5-3.4-8.2
	C99.2,15.1,99.1,15,99,15c-0.7,0-1.3,0-2,0c-0.1,0-0.1,0-0.2,0c0,0.1,0,0.2,0,0.3c0,2.8,0,5.5,0,8.3c0,0.4,0,0.4-0.4,0.4
	c-0.7,0-1.5,0-2.2,0c-0.4,0-0.4,0-0.4-0.4c0-2.8,0-5.6,0-8.3C93.8,15.2,93.8,15.1,93.8,15z"/>
<path d="M57.5,22.6c0,0.1,0,0.2,0,0.2c0,1.4,0,2.8,0,4.2c0,0.3,0,0.3-0.3,0.3c-0.8,0-1.5,0-2.3,0c-0.2,0-0.3-0.1-0.3-0.3
	c0-4.8,0-9.6,0-14.4c0-0.2,0-0.3,0.3-0.3c0.8,0,1.6,0,2.4,0c0.2,0,0.3,0,0.3,0.3c0,0.4,0,0.8,0,1.2c0.2-0.2,0.3-0.3,0.4-0.4
	c1.2-1.2,2.6-1.5,4.2-1.2c2,0.4,3.3,1.6,3.9,3.5c0.6,1.8,0.6,3.6-0.3,5.3c-0.9,1.9-2.5,2.9-4.7,3c-1.4,0-2.6-0.5-3.5-1.5
	C57.6,22.7,57.6,22.7,57.5,22.6z M57.5,18.1c0,0.9,0.2,1.6,0.6,2.1c0.7,1,1.6,1.5,2.8,1.4c1.2-0.1,2-0.8,2.4-1.9
	c0.4-1,0.4-2.1,0-3.1c-0.8-1.9-3.1-2.4-4.6-1.1C57.8,16.2,57.5,17.2,57.5,18.1z"/>
<path d="M48.1,24.2c-2.4-0.1-4.4-0.9-6.2-2.4c-0.2-0.2-0.2-0.2,0-0.4c0.5-0.6,0.9-1.1,1.4-1.7c0.2-0.2,0.2-0.2,0.4,0
	c0.9,0.7,1.8,1.3,2.9,1.6c0.8,0.2,1.7,0.3,2.5,0.1c0.4-0.1,0.8-0.3,1.1-0.6c0.5-0.5,0.7-1.7-0.3-2.3c-0.6-0.4-1.3-0.6-2-0.7
	c-1.1-0.3-2.1-0.5-3.1-1c-0.7-0.3-1.4-0.8-1.9-1.4c-0.6-0.8-0.7-1.8-0.6-2.8c0.1-2,1.5-3.5,3.6-3.9c2.6-0.6,5,0,7.1,1.7
	c0.1,0.1,0.1,0.2,0.1,0.3c-0.4,0.6-0.9,1.2-1.3,1.9c-0.1,0.2-0.2,0.2-0.4,0c-0.7-0.5-1.5-1-2.3-1.2c-0.8-0.2-1.6-0.3-2.3-0.1
	c-0.3,0.1-0.5,0.2-0.8,0.3c-0.8,0.5-0.8,1.8,0.1,2.4c0.5,0.3,1.1,0.5,1.7,0.7c0.9,0.3,1.8,0.5,2.6,0.8c0.5,0.2,1,0.5,1.5,0.8
	c1,0.6,1.5,1.5,1.7,2.7c0.1,1.3-0.1,2.5-1,3.5c-0.7,0.8-1.6,1.3-2.7,1.5C49.3,24.1,48.7,24.2,48.1,24.2z"/>
<path d="M73.5,12.2c2.4,0.1,4.3,1.1,5.5,3.2c1.2,2.2,0.8,5-0.9,6.8c-1.1,1.2-2.6,1.9-4.2,2c-1.8,0.1-3.3-0.4-4.7-1.7
	c-1-1-1.6-2.2-1.8-3.6c-0.2-1.9,0.3-3.5,1.6-4.9c1-1,2.2-1.6,3.6-1.8c0.1,0,0.2,0,0.4,0C73.1,12.2,73.3,12.2,73.5,12.2z
	 M70.2,18.2c0,0.6,0.1,1.1,0.4,1.6c0.9,2,3.6,2.5,5.2,0.9c0.9-0.9,1.1-2.1,0.8-3.3c-0.5-2.3-2.9-3.1-4.7-2.1
	C70.7,15.9,70.3,16.9,70.2,18.2z"/>
<path d="M81.2,15c-0.4,0-0.8,0-1.1,0c-0.2,0-0.3,0-0.3-0.3c0-0.7,0-1.4,0-2c0-0.2,0-0.3,0.3-0.3c0.4,0,0.7,0,1.1,0
	c0-0.1,0-0.2,0-0.2c0-0.8,0-1.7,0-2.5c0-0.3,0-0.3,0.3-0.3c0.8,0,1.6,0,2.3,0c0.3,0,0.3,0,0.3,0.3c0,0.8,0,1.7,0,2.5
	c0,0.1,0,0.1,0,0.2c0.1,0,0.2,0,0.2,0c0.8,0,1.7,0,2.5,0c0.3,0,0.3,0,0.3,0.3c0,0.7,0,1.3,0,2c0,0.3,0,0.3-0.3,0.3
	c-0.8,0-1.6,0-2.4,0c-0.1,0-0.1,0-0.2,0c0,0.1,0,0.2,0,0.2c0,1.7,0,3.4,0,5.1c0,0.1,0,0.3,0,0.4c0.1,0.5,0.4,0.8,0.9,0.8
	c0.6,0.1,1.1-0.1,1.7-0.3c0.3-0.1,0.4-0.1,0.4,0.3c0,0.6,0,1.2,0,1.8c0,0.2-0.1,0.3-0.2,0.3c-0.9,0.5-1.8,0.6-2.8,0.5
	c-0.7-0.1-1.3-0.2-1.8-0.6c-0.6-0.5-0.9-1.1-1-1.9c0-0.3-0.1-0.6-0.1-1c0-1.8,0-3.6,0-5.4C81.2,15.2,81.2,15.1,81.2,15z"/>
<path d="M91.2,18.2c0,1.8,0,3.6,0,5.4c0,0.4,0,0.4-0.4,0.4c-0.8,0-1.5,0-2.3,0c-0.3,0-0.3,0-0.3-0.3c0-3.6,0-7.3,0-10.9
	c0-0.2,0-0.3,0.3-0.3c0.8,0,1.6,0,2.4,0c0.2,0,0.3,0,0.3,0.3C91.2,14.6,91.2,16.4,91.2,18.2z"/>
<path d="M91.6,9.2c0,1-0.8,1.8-1.8,1.8c-1,0-1.8-0.8-1.8-1.8c0-1,0.8-1.8,1.8-1.8C90.8,7.4,91.6,8.2,91.6,9.2z"/>
<path d="M112.2,16c-1,0-1.8-0.8-1.8-1.8c0-1,0.8-1.8,1.7-1.8c1,0,1.9,0.7,1.9,1.7C114,15.2,113.3,16,112.2,16z M113.8,14.2
	c0-0.9-0.7-1.6-1.6-1.6c-0.9,0-1.6,0.7-1.6,1.6c0,0.9,0.7,1.6,1.6,1.6C113.1,15.9,113.8,15.1,113.8,14.2z"/>
<path d="M112.6,14.4c0.2,0.2,0.3,0.4,0.5,0.7c-0.3,0-0.5,0.1-0.6-0.2c0-0.1-0.1-0.1-0.1-0.2c-0.1-0.2-0.3-0.3-0.5-0.2
	c0,0.2,0,0.4,0,0.6c-0.1,0-0.2,0-0.4,0c0-0.6,0-1.2,0-1.9c0.3,0,0.6,0,0.9,0c0.4,0,0.6,0.2,0.6,0.5C113.1,14,113,14.2,112.6,14.4
	z M111.8,14.1c0.2,0,0.4,0,0.6,0c0.2,0,0.3-0.1,0.3-0.3c0-0.2-0.1-0.3-0.2-0.3c-0.2,0-0.4,0-0.6,0
	C111.8,13.8,111.8,13.9,111.8,14.1z"/>
	<path fill="#889B02" d="M17.4,34.9C7.9,34.9-0.1,27.1,0,17.3C0.1,7.8,7.9,0.1,17.5,0.1C27.1,0.2,34.9,8,34.8,17.7
		C34.7,27.3,26.8,34.9,17.4,34.9z M15.1,9.3c-2.5,0-3.3,0.1-5.3,0.4c-1.1,0.2-2.2,0.4-3.3,0.7c-0.9,0.3-1.4,1.2-1.1,2
		c0.3,0.9,1.1,1.4,2,1.1c1.6-0.5,3.2-0.7,4.8-0.9c1.5-0.1,3.1-0.1,4.6,0c1.5,0.1,3,0.3,4.5,0.6c2.2,0.5,4.3,1.2,6.3,2.3
		c0.2,0.1,0.5,0.2,0.7,0.2c0.7,0,1.4-0.5,1.6-1.2c0.2-0.7-0.1-1.5-0.7-1.8c-0.2-0.1-0.4-0.3-0.7-0.4c-2.4-1.3-5.1-2.1-7.8-2.5
		c-1.1-0.2-2.2-0.3-3.4-0.4C16.6,9.4,15.6,9.3,15.1,9.3z M14.7,15.3c-1.8,0-3.3,0.1-4.8,0.4c-0.8,0.2-1.6,0.3-2.5,0.6
		c-0.7,0.2-1.1,0.9-0.9,1.5c0.2,0.8,0.9,1.3,1.8,1.1c1.6-0.5,3.3-0.7,5-0.8c1.5-0.1,2.9,0,4.4,0.2c1.4,0.2,2.8,0.5,4.2,1
		c1.3,0.4,2.5,1,3.7,1.7c0.4,0.2,0.8,0.3,1.2,0.1c0.5-0.2,0.8-0.6,0.8-1.1c0.1-0.6-0.2-1-0.7-1.3c-1-0.6-2.1-1.1-3.2-1.6
		C20.8,15.9,17.7,15.3,14.7,15.3z M15.1,21c-1.7,0-2.9,0.1-4,0.3c-1,0.1-2,0.3-2.9,0.5c-0.6,0.1-0.9,0.7-0.8,1.3
		C7.4,23.7,8,24,8.6,23.9c1.3-0.3,2.6-0.5,3.9-0.6c1.5-0.1,3.1-0.1,4.6,0c1.2,0.1,2.4,0.4,3.5,0.8c1.1,0.4,2.2,0.9,3.2,1.5
		c0.3,0.2,0.5,0.2,0.9,0.2c0.4-0.1,0.8-0.5,0.8-0.9c0.1-0.4-0.1-0.9-0.5-1.1c-1.2-0.7-2.5-1.3-3.8-1.8C19,21.3,16.8,21,15.1,21z"
		/>
	<radialGradient id="SVGID_2_" cx="17.6399" cy="12.5991" r="18.0791" gradientUnits="userSpaceOnUse">
		<stop  offset="0" style="stop-color:#C0D900"/>
		<stop  offset="0.2853" style="stop-color:#B7D300"/>
		<stop  offset="0.7483" style="stop-color:#9FC300"/>
		<stop  offset="1" style="stop-color:#8FB900"/>
	</radialGradient>
	<path fill="url(#SVGID_2_)" d="M17.4,34.8C7.9,34.8-0.1,27,0,17.2C0.1,7.7,7.9-0.1,17.5,0c9.6,0.1,17.4,7.9,17.2,17.6
		C34.7,27.2,26.8,34.8,17.4,34.8z M15.1,9.2c-2.5,0-3.3,0.1-5.3,0.4C8.7,9.7,7.6,10,6.5,10.3c-0.9,0.3-1.4,1.2-1.1,2
		c0.3,0.9,1.1,1.4,2,1.1c1.6-0.5,3.2-0.7,4.8-0.9c1.5-0.1,3.1-0.1,4.6,0c1.5,0.1,3,0.3,4.5,0.6c2.2,0.5,4.3,1.2,6.3,2.3
		c0.2,0.1,0.5,0.2,0.7,0.2c0.7,0,1.4-0.5,1.6-1.2c0.2-0.7-0.1-1.5-0.7-1.8c-0.2-0.1-0.4-0.3-0.7-0.4c-2.4-1.3-5.1-2.1-7.8-2.5
		c-1.1-0.2-2.2-0.3-3.4-0.4C16.6,9.2,15.6,9.2,15.1,9.2z M14.7,15.2c-1.8,0-3.3,0.1-4.8,0.4c-0.8,0.2-1.6,0.3-2.5,0.6
		c-0.7,0.2-1.1,0.9-0.9,1.5c0.2,0.8,0.9,1.3,1.8,1.1c1.6-0.5,3.3-0.7,5-0.8c1.5-0.1,2.9,0,4.4,0.2c1.4,0.2,2.8,0.5,4.2,1
		c1.3,0.4,2.5,1,3.7,1.7c0.4,0.2,0.8,0.3,1.2,0.1c0.5-0.2,0.8-0.6,0.8-1.1c0.1-0.6-0.2-1-0.7-1.3c-1-0.6-2.1-1.1-3.2-1.6
		C20.8,15.7,17.7,15.2,14.7,15.2z M15.1,20.9c-1.7,0-2.9,0.1-4,0.3c-1,0.1-2,0.3-2.9,0.5c-0.6,0.1-0.9,0.7-0.8,1.3
		c0.1,0.6,0.7,0.9,1.3,0.8c1.3-0.3,2.6-0.5,3.9-0.6c1.5-0.1,3.1-0.1,4.6,0c1.2,0.1,2.4,0.4,3.5,0.8c1.1,0.4,2.2,0.9,3.2,1.5
		c0.3,0.2,0.5,0.2,0.9,0.2c0.4-0.1,0.8-0.5,0.8-0.9c0.1-0.4-0.1-0.9-0.5-1.1c-1.2-0.7-2.5-1.3-3.8-1.8
		C19,21.1,16.8,20.8,15.1,20.9z"/>
</svg>
