<?xml version="1.0" encoding="utf-8"?>
<!-- Generator: Adobe Illustrator 18.0.0, SVG Export Plug-In . SVG Version: 6.00 Build 0)  -->
<!DOCTYPE svg PUBLIC "-//W3C//DTD SVG 1.1//EN" "http://www.w3.org/Graphics/SVG/1.1/DTD/svg11.dtd">
<svg version="1.1" xmlns="http://www.w3.org/2000/svg" xmlns:xlink="http://www.w3.org/1999/xlink" x="0px" y="0px"
	 viewBox="0 0 161.1 37.2" enable-background="new 0 0 161.1 37.2" xml:space="preserve">
	<path fill="#00529C" d="M41.3,24.2h3.7c1.5,0,2,0.5,2,1.7c0,1.2-0.6,1.7-2,1.7h-3.7V24.2z M35.6,36.6h5.8v-5.1h6.2
		c4.1,0,5.6-2.4,5.6-5.5c0-3.6-1.5-5.7-5.6-5.7H35.6V36.6z"/>
	<path fill="#00529C" d="M55,20.4h15.5v4h-9.8v2.2h9.1v4h-9.1v2.2h9.8v4H55V20.4z"/>
	<path fill="#00529C" d="M78.7,24.2h3.7c1.5,0,2,0.5,2,1.7c0,1.2-0.6,1.7-2,1.7h-3.7V24.2z M73,36.6h5.8v-5.1h6.2
		c4.1,0,5.6-2.4,5.6-5.5c0-3.6-1.5-5.7-5.6-5.7H73V36.6z"/>
	<path fill="#00529C" d="M96.1,29.7c-2.8-0.5-4-2.3-4-4.6c0-4.2,3.7-5.3,8.5-5.3c6.5,0,9.2,1.9,9.4,5.3h-6.7
		c0-0.7-0.3-1.1-0.9-1.3c-0.5-0.3-1.2-0.3-1.8-0.3c-1.7,0-2.3,0.5-2.3,1.2c0,0.5,0.2,0.8,0.8,0.8l6.9,1.1c2.9,0.5,4.7,2,4.7,4.7
		c0,4-2.9,5.8-9.4,5.8c-4.4,0-9.3-0.7-9.3-5.5h7c0,0.5,0.2,0.9,0.6,1.2c0.4,0.2,1.1,0.3,2,0.3c1.8,0,2.3-0.5,2.3-1.3
		c0-0.5-0.3-1-1-1.1L96.1,29.7z"/>
	<path fill="#00529C" d="M112.5,20.4h5.8v16.2h-5.8V20.4z"/>
	<path fill="#00529C" d="M139.7,30.3c-0.4,2.1-1,3.9-2.5,5.1c-1.4,1.2-3.6,1.8-7.1,1.8c-3.5,0-10-0.3-10-8.7c0-8.4,6.5-8.7,10-8.7
		c3.5,0,8.8,0.5,9.6,6.9h-6.5c-0.2-1.2-0.9-2.8-3.1-2.8c-2.4,0-3.9,1.3-3.9,4.6c0,3.3,1.5,4.6,3.6,4.6c1.8,0,2.9-0.8,3.4-2.8
		H139.7z"/>
	<path fill="#00529C" d="M147.2,28.5c0-3.3,1.5-4.6,3.9-4.6c2.4,0,3.8,1.3,3.8,4.6c0,3.3-1.5,4.6-3.8,4.6
		C148.7,33.1,147.2,31.8,147.2,28.5z M141.1,28.5c0,8.4,6.5,8.7,10,8.7c3.5,0,10-0.3,10-8.7c0-8.4-6.5-8.7-10-8.7
				C147.6,19.8,141.1,20.1,141.1,28.5z"/>
	<path fill="#00529C" d="M26.8,20.5c0.4-7.8-6.4-16.6-15.5-17.7l0-0.1c9,0,16,8.4,16,15c0,1.4-0.1,2.2-0.3,2.8L26.8,20.5z
		 M26.3,21.5c-0.6,0.7-1.4,1.5-2.2,2.2c-1.6-9.4-8.5-17.6-13.4-20l-0.1,0.1c4.9,4,10.7,11.8,13,20.3c-1.1,0.8-2.3,1.5-3.7,2.1
		c-4.6-5.3-8.9-15.4-10.3-21.9l-0.1,0c0,6.3,4.5,16.9,9.9,22.1c-1.2,0.5-2.5,0.8-3.9,1.1c-5.2-2.1-8.9-8.7-8.9-15.4
		c0-4.4,1.3-7.1,1.6-7.7L8,4.3c-0.3,0.5-2.3,3.2-2.3,8c0,7.6,3.8,13.5,8.8,15.3c-1.7,0.2-3.5,0.1-5.4-0.3l0,0.1
		c0.5,0.2,2.3,1,5.1,1c6.3,0,10.5-3.9,12.2-6.8L26.3,21.5z"/>
	<path fill="#0099D8" d="M13.6,0C8.8,0,3.3,3.4,3.3,6.6c0,1.2,1.1,2.2,3.4,2.2c5.3,0,10.3-3.7,10.3-6.5C16.9,0.8,15.5,0,13.6,0z
		 M15.5,2.2c0,2.4-4.6,5.3-8.5,5.3c-1.7,0-2.6-0.7-2.6-1.8c0-2.4,4.7-5.3,8.3-5.3C15,0.4,15.5,1.6,15.5,2.2z"/>
	<path fill="#F47937" d="M1.4,8c-0.1,0.2-0.7,1.3-0.7,2.3c0,2,2,3.8,5.7,3.8c7.1,0,15.3-5.2,15.3-10.1c0-2.2-2.1-3.4-3.5-3.6l0,0.1
		c0.4,0.1,2.1,0.9,2.1,2.8c0,3.9-7.3,9.1-14.5,9.1c-2.8,0-4.5-1.4-4.5-3.4C1.3,8.6,1.4,8.2,1.4,8L1.4,8z"/>
	<path fill="#009D57" d="M24.7,4.5c0.2,0.1,1.4,1.1,1.4,3c0,6.3-9.9,12.5-18.6,12.5c-5.2,0-7.6-2.6-7.5-4.8h0.1
		c0.2,1.2,1.9,3.3,6.4,3.3c8.7,0,18.5-6.4,18.5-12C25,5.4,24.7,4.8,24.7,4.5L24.7,4.5z"/>
	<path fill="#ED1C24" d="M28,10.3c0,0.1,0.3,0.7,0.3,1.7c0,7-10,13-18.7,13c-4.5,0-6.8-2.2-7.3-3l0.1-0.1C3.6,23,6,23.8,8.9,23.8
			c7.7,0,19.1-5.8,19-13.4L28,10.3z"/>
</svg>
