<?xml version="1.0" encoding="utf-8"?>
<!-- Generator: Adobe Illustrator 18.1.0, SVG Export Plug-In . SVG Version: 6.00 Build 0)  -->
<!DOCTYPE svg PUBLIC "-//W3C//DTD SVG 1.1//EN" "http://www.w3.org/Graphics/SVG/1.1/DTD/svg11.dtd">
<svg version="1.1" id="Layer_1" xmlns="http://www.w3.org/2000/svg" xmlns:xlink="http://www.w3.org/1999/xlink" x="0px" y="0px"
	 width="500px" height="128.8px" viewBox="-333.3 186.3 500 128.8" enable-background="new -333.3 186.3 500 128.8"
	 xml:space="preserve">
<path fill="#004684" d="M-26.9,258.4v-15.8c-5.1,2.2-18.3,5.4-18.3,12.3c0,4.5,3.4,8.3,8.2,8.3C-32.7,263.2-30.2,260.9-26.9,258.4
	 M-26.7,239.9v-12.1c0-4.4-2.8-5.6-7-5.6c-4.1,0-10,2.8-10,5.2c0,0.7,0.3,1.5,0.3,2.6c0,4.2-1.1,7.1-5.9,7.1c-2,0-3.4-2-3.4-3.8
	c0-2.4,1.7-4.8,4.1-6.8c5.1-4.2,13.3-7.6,20-7.6c6.9,0,10.7,4.1,10.7,10.7v29.7c0,1.9,0,5.2,2.6,5.2c1.8,0,2.8-2.3,3.2-3.8h1.8
	c-0.6,5.3-2.8,8.4-8.3,8.4c-4.2,0-7.7-3.8-7.8-7.6c-5.3,3.9-9,7.6-16,7.6c-5.2,0-10.1-4.1-10.1-9.4
	C-52.7,247.5-35.9,243.7-26.7,239.9"/>
<path fill="#004684" d="M72.8,243.9c0,8.5,3.2,22.6,14.3,22.6c10.8,0,14.5-11.2,14.5-20c0-9.4-1.4-25.5-14.4-25.5
	C76.1,221.1,72.8,235.6,72.8,243.9 M63.1,243.5c0-13.4,9.6-24.8,23.7-24.8c14.9,0,24.4,11.2,24.4,25.3c0,14.4-9.3,25-24.3,25
	C71.7,269,63.1,257.5,63.1,243.5"/>
<path fill="#004684" d="M-212.9,193.7v-2.6h25.8v2.6c-4.8,0.1-6.6,0.1-6.6,3c0,0.1,0.1,0.9,0.5,2l15.6,52.9l21.9-62.9h1.8l19.1,62.1
	c0,0,15.1-45.4,15.1-51.9c0-5.1-3.2-4.7-7.3-5.2v-2.6l15.8,0c7,0,14.1-2.4,18.1-4.8v40.2c4.9-4.4,9.1-7.9,16.1-7.9
	c5.2,0,10.1,2.3,12.7,6.8c2.4,3.9,2.8,7.5,2.8,11.8v22.3c0,5.8,1.5,5.8,6.5,6.1v2.1h-21.6v-2.1c4.7-0.3,6.1-0.3,6.1-6.1v-22.3
	c0-3.5,0-5.1-1.6-8.4c-1.8-3.2-5.1-6.3-9.2-5.6c-6.2,1-8.7,3.9-11.9,7v29.3c0,5.8,1.5,5.8,6.2,6.1v2.1h-21.8v-2.1
	c5.1-0.3,6.6-0.3,6.6-6.1v-65.1c0.1-0.1-1.8,0-4.1,0c-8.7,0.6-8.9,7.2-11.7,15.1l-19.6,59.6h-2l-19.3-59.7l-22.4,59.7h-1.9
	l-20.6-65.6c-1.2-3.4-1.8-6.3-3.6-8.2C-208.3,194.3-208.4,193.6-212.9,193.7"/>
<path fill="#004684" d="M134.1,267.7v-2.1c-4.9-0.3-6.4-0.3-6.4-6.1v-26.2c0-5.1,6.8-9.8,11.7-9.8c7.4,0,11.3,4.6,11.3,11.6v24.4
	c0,5.8-1.5,5.8-6.6,6.1v2.1h22.5v-2.1c-3.9-0.3-6.9-0.3-6.9-6.1v-26.2c0-8.3-8.4-14.6-16.6-14.6c-7.2,0-10.8,3.3-15.4,8v-8
	c-4.9,1.8-10.1,4.3-15.4,5.1v1.8c4.7,0.5,6.4,2,6.4,6.2v27.8c0,5.8-1.5,5.8-6.6,6.1v2.1"/>
<path fill="#004684" d="M14.6,267.7v-2.1c-5.8-0.3-7.3-0.3-7.3-6.1v-29.4c0-1.8,2.9-4.5,6.1-4.6c2.9,0,3.5,3.4,7.2,3.4
	c4.5,0,5.7-2.4,5.7-5.7c0-3.4-3.7-5.4-7.8-5.4c-4.9,0-8.7,4.2-11.4,8v-7.5c-5.2,2.4-10.7,4.6-15.8,5.4v1.8c5.1,0.5,7.1,1.7,7.1,6v28
	c0,5.8-1.5,5.8-6.4,6.1v2.1"/>
<path fill="#004684" d="M62.8,221.4l1.6-6.1H44.9v-9.9h-1.1c-4.6,5.4-9,10-14.2,14.7v1.3h6.2v33.4c0,7.9,3.6,14.5,12.2,14.5
	c7.4,0,13-5.4,16-8.9l-1.4-1.9c-2.7,3-6.2,4.7-9.4,4.7c-6.6,0-8.2-3.5-8.2-9.6v-32.2"/>
<path fill="#004684" d="M-207.8,297.9c0,3.8,1,6.6,5,6.6c3.7,0,5.6-2.5,5.6-6.8v-7.5c0-0.6-0.1-1-0.2-1.4c-0.1-1-1.1-1.4-2.3-1.5
	v-0.7h6.4v0.7c-1.3,0.1-2.2,0.5-2.3,1.5c-0.1,0.4-0.2,0.9-0.2,1.4v7.6c0,5.8-3.7,7.9-7.2,7.9c-5.7,0-7.5-2.9-7.5-7.8v-8
	c0-2.5,0.1-2.4-2.3-2.7v-0.7h7.2v0.7c-2.4,0.3-2.3,0.2-2.3,2.7"/>
<path fill="none" stroke="#004684" stroke-width="0.374" stroke-miterlimit="3.864" d="M-207.8,297.9c0,3.8,1,6.6,5,6.6
	c3.7,0,5.6-2.5,5.6-6.8v-7.5c0-0.6-0.1-1-0.2-1.4c-0.1-1-1.1-1.4-2.3-1.5v-0.7h6.4v0.7c-1.3,0.1-2.2,0.5-2.3,1.5
	c-0.1,0.4-0.2,0.9-0.2,1.4v7.6c0,5.8-3.7,7.9-7.2,7.9c-5.7,0-7.5-2.9-7.5-7.8v-8c0-2.5,0.1-2.4-2.3-2.7v-0.7h7.2v0.7
	c-2.4,0.3-2.3,0.2-2.3,2.7L-207.8,297.9L-207.8,297.9z"/>
<path fill="#004684" d="M-178,305.5c-3.3-3.9-6.7-8-10.1-12v9.2c0,0.4,0.1,0.8,0.1,1.1c0.1,0.8,0.8,1.1,2.2,1.2v0.5h-5.1V305
	c1-0.1,1.7-0.4,1.8-1.2c0-0.3,0.1-0.7,0.1-1.1v-9.8c-0.6-0.7-1.2-1.4-2.4-1.4V291h3.8c3.1,3.7,6.3,7.6,9.4,11.3h0v-8.5
	c0-0.4-0.1-0.8-0.1-1.1c-0.1-0.7-0.8-1-2.2-1.1V291h5.1v0.5c-1,0.1-1.7,0.4-1.8,1.1c0,0.3-0.1,0.7-0.1,1.1v11.7"/>
<path fill="none" stroke="#004684" stroke-width="0.374" stroke-miterlimit="3.864" d="M-178,305.5c-3.3-3.9-6.7-8-10.1-12v9.2
	c0,0.4,0.1,0.8,0.1,1.1c0.1,0.8,0.8,1.1,2.2,1.2v0.5h-5.1V305c1-0.1,1.7-0.4,1.8-1.2c0-0.3,0.1-0.7,0.1-1.1v-9.8
	c-0.6-0.7-1.2-1.4-2.4-1.4V291h3.8c3.1,3.7,6.3,7.6,9.4,11.3h0v-8.5c0-0.4-0.1-0.8-0.1-1.1c-0.1-0.7-0.8-1-2.2-1.1V291h5.1v0.5
	c-1,0.1-1.7,0.4-1.8,1.1c0,0.3-0.1,0.7-0.1,1.1v11.7L-178,305.5L-178,305.5z"/>
<path fill="#004684" d="M-167.8,302.9c0,1.9-0.1,1.8,1.8,2.1v0.5h-5.6V305c1.9-0.2,1.8-0.1,1.8-2.1v-9.4c0-1.9,0.1-1.8-1.8-2.1V291
	h5.6v0.5c-1.9,0.2-1.8,0.1-1.8,2.1"/>
<path fill="none" stroke="#004684" stroke-width="0.374" stroke-miterlimit="3.864" d="M-167.8,302.9c0,1.9-0.1,1.8,1.8,2.1v0.5
	h-5.6V305c1.9-0.2,1.8-0.1,1.8-2.1v-9.4c0-1.9,0.1-1.8-1.8-2.1V291h5.6v0.5c-1.9,0.2-1.8,0.1-1.8,2.1V302.9z"/>
<path fill="#004684" d="M-156.9,291.5c-1.1,0-2,0.3-1.3,2.3c0.8,2.5,2,6,3.1,9.2c1.3-3.2,2.6-6.4,3.9-9.6c0.5-1.3,0-1.9-1.4-1.9V291
	h4.5v0.5c-0.6,0-1.3,0.2-1.7,1.3c-1.7,4.3-3.5,8.5-5.3,12.8h-1.1c-1.3-3.6-2.7-7.6-3.9-11.1c-0.8-2.2-1.4-2.9-2.4-2.9V291h5.7"/>
<path fill="none" stroke="#004684" stroke-width="0.374" stroke-miterlimit="3.864" d="M-156.9,291.5c-1.1,0-2,0.3-1.3,2.3
	c0.8,2.5,2,6,3.1,9.2c1.3-3.2,2.6-6.4,3.9-9.6c0.5-1.3,0-1.9-1.4-1.9V291h4.5v0.5c-0.6,0-1.3,0.2-1.7,1.3c-1.7,4.3-3.5,8.5-5.3,12.8
	h-1.1c-1.3-3.6-2.7-7.6-3.9-11.1c-0.8-2.2-1.4-2.9-2.4-2.9V291h5.7L-156.9,291.5L-156.9,291.5z"/>
<path fill="#004684" d="M-145,305c1.9-0.2,1.8-0.1,1.8-2.1v-9.4c0-1.9,0.1-1.8-1.8-2.1V291h9.3v3.3h-0.5c-0.2-1.5-0.6-2.7-2.1-2.7
	h-2.8v5.9h1.8c1.3,0,1.9-0.5,1.9-1.8h0.5v4.4h-0.5c0-1.2-0.5-1.9-1.9-1.9h-1.8v4.7c0,1.8,0.8,1.9,2.7,1.9c3,0,2.9-0.8,3.8-3.1h0.5
	l-0.6,3.7H-145"/>
<path fill="none" stroke="#004684" stroke-width="0.374" stroke-miterlimit="3.864" d="M-145,305c1.9-0.2,1.8-0.1,1.8-2.1v-9.4
	c0-1.9,0.1-1.8-1.8-2.1V291h9.3v3.3h-0.5c-0.2-1.5-0.6-2.7-2.1-2.7h-2.8v5.9h1.8c1.3,0,1.9-0.5,1.9-1.8h0.5v4.4h-0.5
	c0-1.2-0.5-1.9-1.9-1.9h-1.8v4.7c0,1.8,0.8,1.9,2.7,1.9c3,0,2.9-0.8,3.8-3.1h0.5l-0.6,3.7H-145C-145,305.5-145,305-145,305z"/>
<path fill="#004684" d="M-130.3,291h6c2.1,0,4.2,1.1,4.2,3.5c0,2.1-1.3,3.6-2.9,4.2l2,3.1c1,1.5,2.2,3,2.9,3.4v0.3h-2.1
	c-1.2,0-1.9-2.3-4.4-6.4h-1.9v3.8c0,1.9-0.1,1.8,1.8,2.1v0.5h-5.6V305c1.9-0.2,1.8-0.1,1.8-2.1v-9.4c0-1.9,0.1-1.8-1.8-2.1
	L-130.3,291 M-126.5,298.4h1.7c1.8,0,2.6-1.4,2.6-3.7c0-2.3-1.2-3.1-2.8-3.1h-1.6V298.4z"/>
<path fill="none" stroke="#004684" stroke-width="0.374" stroke-miterlimit="3.864" d="M-130.3,291h6c2.1,0,4.2,1.1,4.2,3.5
	c0,2.1-1.3,3.6-2.9,4.2l2,3.1c1,1.5,2.2,3,2.9,3.4v0.3h-2.1c-1.2,0-1.9-2.3-4.4-6.4h-1.9v3.8c0,1.9-0.1,1.8,1.8,2.1v0.5h-5.6V305
	c1.9-0.2,1.8-0.1,1.8-2.1v-9.4c0-1.9,0.1-1.8-1.8-2.1L-130.3,291 M-126.5,298.4h1.7c1.8,0,2.6-1.4,2.6-3.7c0-2.3-1.2-3.1-2.8-3.1
	h-1.6V298.4z"/>
<path fill="#004684" d="M-107.7,294c-0.2-1.5-1-2.6-2.6-2.6c-1.2,0-2.3,0.6-2.3,2.2c0,1.5,1.5,2.3,3.5,3.9c2.2,1.6,2.9,2.7,2.9,4.4
	c0,2.5-2.5,3.8-5,3.8c-1.3,0-2.5-0.3-3.5-0.7c-0.1,0-0.1-0.1-0.1-0.3v-3h0.5c0.2,2.3,1.7,3.2,3.3,3.2c1.5,0,2.7-1.1,2.7-2.6
	c0-1.4-0.7-2.4-3.8-4.5c-1.1-0.8-2.5-1.6-2.5-3.8c0-1.9,2.1-3.3,4.5-3.3c0.9,0,2.1,0.1,2.9,0.4c0.1,0,0.1,0.1,0.1,0.2v2.7"/>
<path fill="none" stroke="#004684" stroke-width="0.374" stroke-miterlimit="3.864" d="M-107.7,294c-0.2-1.5-1-2.6-2.6-2.6
	c-1.2,0-2.3,0.6-2.3,2.2c0,1.5,1.5,2.3,3.5,3.9c2.2,1.6,2.9,2.7,2.9,4.4c0,2.5-2.5,3.8-5,3.8c-1.3,0-2.5-0.3-3.5-0.7
	c-0.1,0-0.1-0.1-0.1-0.3v-3h0.5c0.2,2.3,1.7,3.2,3.3,3.2c1.5,0,2.7-1.1,2.7-2.6c0-1.4-0.7-2.4-3.8-4.5c-1.1-0.8-2.5-1.6-2.5-3.8
	c0-1.9,2.1-3.3,4.5-3.3c0.9,0,2.1,0.1,2.9,0.4c0.1,0,0.1,0.1,0.1,0.2v2.7L-107.7,294L-107.7,294z"/>
<path fill="#004684" d="M-98.3,302.9c0,1.9-0.1,1.8,1.8,2.1v0.5h-5.6V305c1.9-0.2,1.8-0.1,1.8-2.1v-9.4c0-1.9,0.1-1.8-1.8-2.1V291
	h5.6v0.5c-1.9,0.2-1.8,0.1-1.8,2.1"/>
<path fill="none" stroke="#004684" stroke-width="0.374" stroke-miterlimit="3.864" d="M-98.3,302.9c0,1.9-0.1,1.8,1.8,2.1v0.5h-5.6
	V305c1.9-0.2,1.8-0.1,1.8-2.1v-9.4c0-1.9,0.1-1.8-1.8-2.1V291h5.6v0.5c-1.9,0.2-1.8,0.1-1.8,2.1V302.9z"/>
<path fill="#004684" d="M-85.6,302.9c0,1.9-0.1,1.8,1.8,2.1v0.5h-5.6V305c1.9-0.2,1.8-0.1,1.8-2.1v-11.3h-1.9
	c-1.8,0-2.2,1.1-2.9,2.5h-0.5l0.6-3.2h11.5l0.6,3.2h-0.5c-0.7-1.4-1.1-2.5-2.9-2.5h-1.9"/>
<path fill="none" stroke="#004684" stroke-width="0.374" stroke-miterlimit="3.864" d="M-85.6,302.9c0,1.9-0.1,1.8,1.8,2.1v0.5h-5.6
	V305c1.9-0.2,1.8-0.1,1.8-2.1v-11.3h-1.9c-1.8,0-2.2,1.1-2.9,2.5h-0.5l0.6-3.2h11.5l0.6,3.2h-0.5c-0.7-1.4-1.1-2.5-2.9-2.5h-1.9
	L-85.6,302.9L-85.6,302.9z"/>
<path fill="#004684" d="M-73.6,305c1.9-0.2,1.8-0.1,1.8-2.1v-3.2l-3.2-6.3c-0.7-1.4-1.3-1.9-2.2-1.9V291h5.3v0.5
	c-1.6,0-1.4,0.8-0.9,1.9l2.5,5.2l2.9-5.2c0.7-1.3,0-1.9-1.2-1.9V291h4.3v0.5c-0.6,0-1.1,0.3-1.7,1.3l-3.5,6.3
	c-0.2,0.4-0.2,1-0.2,1.5v2.3c0,1.9-0.1,1.8,1.8,2.1v0.5h-5.6"/>
<path fill="none" stroke="#004684" stroke-width="0.374" stroke-miterlimit="3.864" d="M-73.6,305c1.9-0.2,1.8-0.1,1.8-2.1v-3.2
	l-3.2-6.3c-0.7-1.4-1.3-1.9-2.2-1.9V291h5.3v0.5c-1.6,0-1.4,0.8-0.9,1.9l2.5,5.2l2.9-5.2c0.7-1.3,0-1.9-1.2-1.9V291h4.3v0.5
	c-0.6,0-1.1,0.3-1.7,1.3l-3.5,6.3c-0.2,0.4-0.2,1-0.2,1.5v2.3c0,1.9-0.1,1.8,1.8,2.1v0.5h-5.6L-73.6,305L-73.6,305z"/>
<path fill="#004684" d="M-55.3,300.5c0-3.5,3-8.8,7.5-8.8c3.6,0,4.4,2.4,4.4,4.8c0,3-2.4,9.3-7.5,9.3
	C-54.4,305.8-55.3,303.1-55.3,300.5 M-45.9,295.3c0-2.8-1.7-2.9-2.1-2.9c-2.9,0-4.8,5.2-4.8,8.7c0,1.4,0.2,3.9,2.2,3.9
	C-47.6,305-45.9,299.9-45.9,295.3"/>
<path fill="#004684" d="M-30.9,292.6l-0.7,0.6h-3.5c-1.3,6.4-3.5,14.9-5,19.1h-1.2l3.9-19.1H-40l0.3-1.1h2.5
	c1.4-5.7,6.2-6.3,7.3-6.3c0.6,0,1.9,0.1,2.3,0.5l-0.3,1.8l-0.7,0.3c-0.4-0.7-1.2-1.6-2.4-1.6c-1.6,0-2.8,1.1-3.5,4l-0.3,1.3h4"/>
<path fill="#004684" d="M-13.9,302.1c0,2.5-0.1,2.4,2.3,2.7v0.7h-7.2v-0.7c2.4-0.3,2.3-0.2,2.3-2.7V290c0-2.5,0.1-2.4-2.3-2.7v-0.7
	h7c4.5,0,6.7,1.8,6.7,5c0,3.9-3.5,6-7.6,5.7v-0.5c3.4,0.1,4.9-2,4.9-4.9c0-3-1.5-4.4-4.5-4.4h-1.6"/>
<path fill="none" stroke="#004684" stroke-width="0.374" stroke-miterlimit="3.864" d="M-13.9,302.1c0,2.5-0.1,2.4,2.3,2.7v0.7h-7.2
	v-0.7c2.4-0.3,2.3-0.2,2.3-2.7V290c0-2.5,0.1-2.4-2.3-2.7v-0.7h7c4.5,0,6.7,1.8,6.7,5c0,3.9-3.5,6-7.6,5.7v-0.5
	c3.4,0.1,4.9-2,4.9-4.9c0-3-1.5-4.4-4.5-4.4h-1.6L-13.9,302.1L-13.9,302.1z"/>
<path fill="#004684" d="M-1.3,305c1.9-0.2,1.8-0.1,1.8-2.1v-9.4c0-1.9,0.1-1.8-1.8-2.1V291H8v3.3H7.4c-0.2-1.5-0.6-2.7-2.1-2.7H2.5
	v5.9h1.7c1.3,0,1.9-0.5,1.9-1.8h0.5v4.4H6.1c0-1.2-0.5-1.9-1.9-1.9H2.5v4.7c0,1.8,0.8,1.9,2.7,1.9c3,0,2.9-0.8,3.8-3.1h0.5l-0.6,3.7
	H-1.3"/>
<path fill="none" stroke="#004684" stroke-width="0.374" stroke-miterlimit="3.864" d="M-1.3,305c1.9-0.2,1.8-0.1,1.8-2.1v-9.4
	c0-1.9,0.1-1.8-1.8-2.1V291H8v3.3H7.4c-0.2-1.5-0.6-2.7-2.1-2.7H2.5v5.9h1.7c1.3,0,1.9-0.5,1.9-1.8h0.5v4.4H6.1
	c0-1.2-0.5-1.9-1.9-1.9H2.5v4.7c0,1.8,0.8,1.9,2.7,1.9c3,0,2.9-0.8,3.8-3.1h0.5l-0.6,3.7H-1.3C-1.3,305.5-1.3,305-1.3,305z"/>
<path fill="#004684" d="M26,305.5c-3.3-3.9-6.7-8-10.1-12v9.2c0,0.4,0.1,0.8,0.1,1.1c0.1,0.8,0.8,1.1,2.2,1.2v0.5h-5.1V305
	c1-0.1,1.7-0.4,1.8-1.2c0.1-0.3,0.1-0.7,0.1-1.1v-9.8c-0.6-0.7-1.2-1.4-2.4-1.4V291h3.8c3.1,3.7,6.3,7.6,9.4,11.3h0v-8.5
	c0-0.4-0.1-0.8-0.1-1.1c-0.1-0.7-0.8-1-2.2-1.1V291h5.1v0.5c-1,0.1-1.7,0.4-1.8,1.1c0,0.3-0.1,0.7-0.1,1.1v11.7"/>
<path fill="none" stroke="#004684" stroke-width="0.374" stroke-miterlimit="3.864" d="M26,305.5c-3.3-3.9-6.7-8-10.1-12v9.2
	c0,0.4,0.1,0.8,0.1,1.1c0.1,0.8,0.8,1.1,2.2,1.2v0.5h-5.1V305c1-0.1,1.7-0.4,1.8-1.2c0.1-0.3,0.1-0.7,0.1-1.1v-9.8
	c-0.6-0.7-1.2-1.4-2.4-1.4V291h3.8c3.1,3.7,6.3,7.6,9.4,11.3h0v-8.5c0-0.4-0.1-0.8-0.1-1.1c-0.1-0.7-0.8-1-2.2-1.1V291h5.1v0.5
	c-1,0.1-1.7,0.4-1.8,1.1c0,0.3-0.1,0.7-0.1,1.1v11.7L26,305.5L26,305.5z"/>
<path fill="#004684" d="M44.6,305.5c-3.3-3.9-6.7-8-10.1-12v9.2c0,0.4,0.1,0.8,0.1,1.1c0.1,0.8,0.8,1.1,2.2,1.2v0.5h-5.1V305
	c1-0.1,1.7-0.4,1.8-1.2c0.1-0.3,0.1-0.7,0.1-1.1v-9.8c-0.6-0.7-1.2-1.4-2.4-1.4V291H35c3.1,3.7,6.3,7.6,9.4,11.3h0v-8.5
	c0-0.4-0.1-0.8-0.1-1.1c-0.1-0.7-0.8-1-2.2-1.1V291h5.1v0.5c-1,0.1-1.7,0.4-1.8,1.1c-0.1,0.3-0.1,0.7-0.1,1.1v11.7"/>
<path fill="none" stroke="#004684" stroke-width="0.374" stroke-miterlimit="3.864" d="M44.6,305.5c-3.3-3.9-6.7-8-10.1-12v9.2
	c0,0.4,0.1,0.8,0.1,1.1c0.1,0.8,0.8,1.1,2.2,1.2v0.5h-5.1V305c1-0.1,1.7-0.4,1.8-1.2c0.1-0.3,0.1-0.7,0.1-1.1v-9.8
	c-0.6-0.7-1.2-1.4-2.4-1.4V291H35c3.1,3.7,6.3,7.6,9.4,11.3h0v-8.5c0-0.4-0.1-0.8-0.1-1.1c-0.1-0.7-0.8-1-2.2-1.1V291h5.1v0.5
	c-1,0.1-1.7,0.4-1.8,1.1c-0.1,0.3-0.1,0.7-0.1,1.1v11.7L44.6,305.5L44.6,305.5z"/>
<path fill="#004684" d="M58.2,294c-0.2-1.5-1-2.6-2.6-2.6c-1.2,0-2.3,0.6-2.3,2.2c0,1.5,1.5,2.3,3.5,3.9c2.2,1.6,2.9,2.7,2.9,4.4
	c0,2.5-2.5,3.8-5,3.8c-1.3,0-2.5-0.3-3.6-0.7c-0.1,0-0.1-0.1-0.1-0.3v-3h0.5c0.2,2.3,1.8,3.2,3.3,3.2c1.5,0,2.7-1.1,2.7-2.6
	c0-1.4-0.7-2.4-3.8-4.5c-1.1-0.8-2.5-1.6-2.5-3.8c0-1.9,2.1-3.3,4.5-3.3c0.9,0,2.1,0.1,2.9,0.4c0.1,0,0.1,0.1,0.1,0.2v2.7"/>
<path fill="none" stroke="#004684" stroke-width="0.374" stroke-miterlimit="3.864" d="M58.2,294c-0.2-1.5-1-2.6-2.6-2.6
	c-1.2,0-2.3,0.6-2.3,2.2c0,1.5,1.5,2.3,3.5,3.9c2.2,1.6,2.9,2.7,2.9,4.4c0,2.5-2.5,3.8-5,3.8c-1.3,0-2.5-0.3-3.6-0.7
	c-0.1,0-0.1-0.1-0.1-0.3v-3h0.5c0.2,2.3,1.8,3.2,3.3,3.2c1.5,0,2.7-1.1,2.7-2.6c0-1.4-0.7-2.4-3.8-4.5c-1.1-0.8-2.5-1.6-2.5-3.8
	c0-1.9,2.1-3.3,4.5-3.3c0.9,0,2.1,0.1,2.9,0.4c0.1,0,0.1,0.1,0.1,0.2v2.7L58.2,294L58.2,294z"/>
<path fill="#004684" d="M66.6,305c1.9-0.2,1.8-0.1,1.8-2.1v-3.2l-3.2-6.3c-0.7-1.4-1.3-1.9-2.2-1.9V291h5.3v0.5
	c-1.6,0-1.4,0.8-0.9,1.9l2.5,5.2l2.9-5.2c0.7-1.3,0-1.9-1.2-1.9V291h4.3v0.5c-0.6,0-1.1,0.3-1.7,1.3l-3.5,6.3
	c-0.2,0.4-0.3,1-0.3,1.5v2.3c0,1.9-0.1,1.8,1.8,2.1v0.5h-5.6"/>
<path fill="none" stroke="#004684" stroke-width="0.374" stroke-miterlimit="3.864" d="M66.6,305c1.9-0.2,1.8-0.1,1.8-2.1v-3.2
	l-3.2-6.3c-0.7-1.4-1.3-1.9-2.2-1.9V291h5.3v0.5c-1.6,0-1.4,0.8-0.9,1.9l2.5,5.2l2.9-5.2c0.7-1.3,0-1.9-1.2-1.9V291h4.3v0.5
	c-0.6,0-1.1,0.3-1.7,1.3l-3.5,6.3c-0.2,0.4-0.3,1-0.3,1.5v2.3c0,1.9-0.1,1.8,1.8,2.1v0.5h-5.6L66.6,305L66.6,305z"/>
<path fill="#004684" d="M79.2,305c1.9-0.2,1.8-0.1,1.8-2.1v-9.4c0-1.9,0.1-1.8-1.8-2.1V291h5.6v0.5c-1.9,0.2-1.8,0.1-1.8,2.1v9.7
	c0,1.5,0.8,1.6,2.7,1.6c3,0,2.9-0.8,3.8-3.1H90l-0.6,3.7H79.2"/>
<path fill="none" stroke="#004684" stroke-width="0.374" stroke-miterlimit="3.864" d="M79.2,305c1.9-0.2,1.8-0.1,1.8-2.1v-9.4
	c0-1.9,0.1-1.8-1.8-2.1V291h5.6v0.5c-1.9,0.2-1.8,0.1-1.8,2.1v9.7c0,1.5,0.8,1.6,2.7,1.6c3,0,2.9-0.8,3.8-3.1H90l-0.6,3.7H79.2
	L79.2,305L79.2,305z"/>
<path fill="#004684" d="M96.3,291.5c-1.1,0-2,0.3-1.3,2.3c0.8,2.5,2,6,3.1,9.2c1.3-3.2,2.6-6.4,3.9-9.6c0.5-1.3,0-1.9-1.4-1.9V291
	h4.5v0.5c-0.6,0-1.3,0.2-1.7,1.3c-1.8,4.3-3.5,8.5-5.3,12.8H97c-1.3-3.6-2.7-7.6-4-11.1c-0.8-2.2-1.4-2.9-2.4-2.9V291h5.7"/>
<path fill="none" stroke="#004684" stroke-width="0.374" stroke-miterlimit="3.864" d="M96.3,291.5c-1.1,0-2,0.3-1.3,2.3
	c0.8,2.5,2,6,3.1,9.2c1.3-3.2,2.6-6.4,3.9-9.6c0.5-1.3,0-1.9-1.4-1.9V291h4.5v0.5c-0.6,0-1.3,0.2-1.7,1.3c-1.8,4.3-3.5,8.5-5.3,12.8
	H97c-1.3-3.6-2.7-7.6-4-11.1c-0.8-2.2-1.4-2.9-2.4-2.9V291h5.7L96.3,291.5L96.3,291.5z"/>
<path fill="#004684" d="M108.5,300.7l-1,2.8c-0.3,0.8,0.1,1.5,1,1.5v0.5h-3.8V305c0.6,0,1.2-0.4,1.5-1c0.9-1.8,3.3-8.6,5.1-13.2h1.2
	c1.4,4.2,3.5,10.6,4.2,12.4c0.5,1.2,0.8,1.8,1.7,1.8v0.5h-4.8V305c1.3,0,1.4-0.7,1.1-1.6l-0.9-2.7L108.5,300.7 M113.5,299.9
	l-2.2-6.8h0l-2.5,6.8H113.5z"/>
<path fill="none" stroke="#004684" stroke-width="0.374" stroke-miterlimit="3.864" d="M108.5,300.7l-1,2.8c-0.3,0.8,0.1,1.5,1,1.5
	v0.5h-3.8V305c0.6,0,1.2-0.4,1.5-1c0.9-1.8,3.3-8.6,5.1-13.2h1.2c1.4,4.2,3.5,10.6,4.2,12.4c0.5,1.2,0.8,1.8,1.7,1.8v0.5h-4.8V305
	c1.3,0,1.4-0.7,1.1-1.6l-0.9-2.7L108.5,300.7 M113.5,299.9l-2.2-6.8h0l-2.5,6.8H113.5z"/>
<path fill="#004684" d="M134.4,305.5c-3.3-3.9-6.7-8-10.1-12v9.2c0,0.4,0.1,0.8,0.1,1.1c0.1,0.8,0.8,1.1,2.2,1.2v0.5h-5.1V305
	c1-0.1,1.7-0.4,1.8-1.2c0-0.3,0.1-0.7,0.1-1.1v-9.8c-0.6-0.7-1.2-1.4-2.4-1.4V291h3.8c3.1,3.7,6.3,7.6,9.4,11.3h0v-8.5
	c0-0.4-0.1-0.8-0.1-1.1c-0.1-0.7-0.8-1-2.2-1.1V291h5.1v0.5c-1,0.1-1.7,0.4-1.8,1.1c0,0.3-0.1,0.7-0.1,1.1v11.7"/>
<path fill="none" stroke="#004684" stroke-width="0.374" stroke-miterlimit="3.864" d="M134.4,305.5c-3.3-3.9-6.7-8-10.1-12v9.2
	c0,0.4,0.1,0.8,0.1,1.1c0.1,0.8,0.8,1.1,2.2,1.2v0.5h-5.1V305c1-0.1,1.7-0.4,1.8-1.2c0-0.3,0.1-0.7,0.1-1.1v-9.8
	c-0.6-0.7-1.2-1.4-2.4-1.4V291h3.8c3.1,3.7,6.3,7.6,9.4,11.3h0v-8.5c0-0.4-0.1-0.8-0.1-1.1c-0.1-0.7-0.8-1-2.2-1.1V291h5.1v0.5
	c-1,0.1-1.7,0.4-1.8,1.1c0,0.3-0.1,0.7-0.1,1.1v11.7L134.4,305.5L134.4,305.5z"/>
<path fill="#004684" d="M144.2,302.9c0,1.9-0.1,1.8,1.8,2.1v0.5h-5.6V305c1.9-0.2,1.8-0.1,1.8-2.1v-9.4c0-1.9,0.1-1.8-1.8-2.1V291
	h5.6v0.5c-1.9,0.2-1.8,0.1-1.8,2.1"/>
<path fill="none" stroke="#004684" stroke-width="0.374" stroke-miterlimit="3.864" d="M144.2,302.9c0,1.9-0.1,1.8,1.8,2.1v0.5h-5.6
	V305c1.9-0.2,1.8-0.1,1.8-2.1v-9.4c0-1.9,0.1-1.8-1.8-2.1V291h5.6v0.5c-1.9,0.2-1.8,0.1-1.8,2.1V302.9z"/>
<path fill="#004684" d="M152.9,300.7l-1,2.8c-0.3,0.8,0.1,1.5,1,1.5v0.5h-3.8V305c0.6,0,1.2-0.4,1.5-1c0.9-1.8,3.3-8.6,5.1-13.2h1.2
	c1.4,4.2,3.5,10.6,4.2,12.4c0.5,1.2,0.8,1.8,1.7,1.8v0.5H158V305c1.3,0,1.4-0.7,1.1-1.6l-0.9-2.7L152.9,300.7 M158,299.9l-2.2-6.8h0
	l-2.5,6.8H158z"/>
<path fill="none" stroke="#004684" stroke-width="0.374" stroke-miterlimit="3.864" d="M152.9,300.7l-1,2.8c-0.3,0.8,0.1,1.5,1,1.5
	v0.5h-3.8V305c0.6,0,1.2-0.4,1.5-1c0.9-1.8,3.3-8.6,5.1-13.2h1.2c1.4,4.2,3.5,10.6,4.2,12.4c0.5,1.2,0.8,1.8,1.7,1.8v0.5H158V305
	c1.3,0,1.4-0.7,1.1-1.6l-0.9-2.7L152.9,300.7 M158,299.9l-2.2-6.8h0l-2.5,6.8H158z"/>
<path fill="#FFFFFF" d="M-333.3,188.3h113.2v56.6c-0.8,46.1-52.5,70.4-59,70.2c-6.8-0.2-54.4-24-54.3-70.4
	C-333.3,243.9-333.3,188.3-333.3,188.3"/>
<path fill="#FFFFFF" d="M-330.6,191.4h107.8v53.9c-0.7,43.9-50,67-56.2,66.8c-6.4-0.2-51.8-22.8-51.7-67
	C-330.6,244.2-330.6,191.4-330.6,191.4"/>
<path fill="#A9323D" d="M-330.6,224.1c0.2,0.2,0-32.7,0-32.7h107.7v32.7"/>
<path fill="none" stroke="#A9323D" stroke-width="0.309" stroke-miterlimit="3.864" d="M-330.6,224.1c0.2,0.2,0-32.7,0-32.7h107.7
	v32.7H-330.6z"/>
<path fill="#004684" d="M-324.5,272.1c4.1,8.7,9.3,15.7,16.5,21.7l31.4-31.7l30.2,31c6.2-5.7,12.3-12.6,16.6-20.7l-46.9-45.1
	l-47.6,45"/>
<path fill="none" stroke="#004684" stroke-width="0.308" stroke-miterlimit="3.864" d="M-324.5,272.1c4.1,8.7,9.3,15.7,16.5,21.7
	l31.4-31.7l30.2,31c6.2-5.7,12.3-12.6,16.6-20.7l-46.9-45.1l-47.6,45L-324.5,272.1z"/>
<line fill="none" stroke="#004684" stroke-width="0.309" stroke-miterlimit="3.864" x1="-330.6" y1="224.3" x2="-222.8" y2="224.3"/>
<path fill="#FFFFFF" d="M-249.8,199.5h2.9c2.1-0.5,2.9-1.7,5.1-1.7c1.6,0,2.3,1,3.5,1c1,0,2.5-1.1,4.2-1.1c1.7,0,2.5,1,3.6,1.5
	c1,0.4,2.3,0.4,3.6,0.4c0,1,0,1.6,0,2.4c0,0.8,1.1,0.5,1.1,1.9c0,1.4-1.5,1.2-1.5,1.7l-0.1,5.3c0.1,0.7,1.4,0.8,1.4,1.8
	c0,1.5-1.5,1-1.4,2.2c0.1,0.9,0,2.7,0,2.7c-2.9,0-21.5,0.2-22.4,0.1c0.1-2,0.4-1.9,0.4-2.8c0.1-0.8-1.7-1.2-1.7-2.5
	c0-0.9,1-0.8,1.1-1.7v-5.3c-0.1-0.7-1.6-1.1-1.6-2.1c0.1-1.2,1.5-1,1.5-1.8C-249.8,201.1-249.8,199.8-249.8,199.5"/>
<path fill="none" stroke="#004684" stroke-width="0.309" stroke-miterlimit="3.864" d="M-249.8,199.5h2.9c2.1-0.5,2.9-1.7,5.1-1.7
	c1.6,0,2.3,1,3.5,1c1,0,2.5-1.1,4.2-1.1c1.7,0,2.5,1,3.6,1.5c1,0.4,2.3,0.4,3.6,0.4c0,1,0,1.6,0,2.4c0,0.8,1.1,0.5,1.1,1.9
	c0,1.4-1.5,1.2-1.5,1.7l-0.1,5.3c0.1,0.7,1.4,0.8,1.4,1.8c0,1.5-1.5,1-1.4,2.2c0.1,0.9,0,2.7,0,2.7c-2.9,0-21.5,0.2-22.4,0.1
	c0.1-2,0.4-1.9,0.4-2.8c0.1-0.8-1.7-1.2-1.7-2.5c0-0.9,1-0.8,1.1-1.7v-5.3c-0.1-0.7-1.6-1.1-1.6-2.1c0.1-1.2,1.5-1,1.5-1.8
	C-249.8,201.1-249.8,199.8-249.8,199.5z"/>
<path fill="none" stroke="#004684" stroke-width="0.309" stroke-miterlimit="3.864" d="M-247.4,199.6c0,0,0,11.9,0,14.7
	c0,0,17.4,0,18.2,0c0-3.2,0-14.8,0-14.8"/>
<line fill="none" stroke="#004684" stroke-width="0.309" stroke-miterlimit="3.864" x1="-238.3" y1="198.9" x2="-238.3" y2="214.4"/>
<path fill="#004684" d="M-238.1,212.5c0.8,0,2.2,0.6,3.5,1c1.8,0.5,3.6,0.2,5,0.4c0.4,0.1-8.6,0.2-8.6,0.2
	C-238,212.3-238.1,212.5-238.1,212.5"/>
<path fill="none" stroke="#004684" stroke-width="0.309" stroke-miterlimit="3.864" d="M-238.1,212.5c0.8,0,2.2,0.6,3.5,1
	c1.8,0.5,3.6,0.2,5,0.4c0.4,0.1-8.6,0.2-8.6,0.2C-238,212.3-238.1,212.5-238.1,212.5z"/>
<path fill="#004684" d="M-239.4,214.8c0-0.4,0.4-0.7,1-0.7c0.6,0,1,0.3,1,0.7c0,0.4-0.5,0.7-1,0.7
	C-238.9,215.5-239.4,215.1-239.4,214.8"/>
<ellipse fill="none" stroke="#004684" stroke-width="0.309" stroke-miterlimit="3.864" cx="-238.3" cy="214.8" rx="1" ry="0.7"/>
<path fill="#004684" d="M-238.8,212.5c-0.8,0-2.2,0.6-3.5,1c-1.8,0.5-3.6,0.2-5,0.4c-0.4,0.1,8.6,0.2,8.6,0.2
	C-238.9,212.3-238.8,212.5-238.8,212.5"/>
<path fill="none" stroke="#004684" stroke-width="0.309" stroke-miterlimit="3.864" d="M-238.8,212.5c-0.8,0-2.2,0.6-3.5,1
	c-1.8,0.5-3.6,0.2-5,0.4c-0.4,0.1,8.6,0.2,8.6,0.2C-238.9,212.3-238.8,212.5-238.8,212.5z"/>
<path fill="#FFFFFF" d="M-298.6,219.2c0.3,1.1,1.1,1.9,2.6,1.9c2.6,0,5.1-1.9,6.6-3c1.2-0.8,2.4-1.7,2.4-3.6l-0.2,0.7
	c0,0,2-2,7.1-0.4c1.4,0.5,7.4,3.8,8.7,4.4c1.1,0.5,5,3.3,11.1,2.2c0,0,9.3-1.3,7.2-10.8c-1.5-6.8-1-7.3-0.5-9.5
	c-0.2-0.1-5.7-1.3-5.5,6.2c-2.4,0.2-5.4,2-3.4,6.7c0.8-1.2,1.9-2.5,3.3-2.5c0.9,0,1.9,1.3,2,2.3c0.2,2.4-2.3,3.4-5.2,3
	c-1.5-0.2-2.9-1.9-5-3.4c0.4-0.2,0.7-1.4,0.7-1.9c0-1.2-1-1.8-1.8-2.2c0.2-0.4,0.4-1,0.4-1.4c0-1-1.4-0.9-1.9-1.3
	c0.2-0.3,0.2-0.1,0.2-0.6c0-1.4,0.2-2.2-2.6-2.1c0.2-1.4-0.1-2.3-1-2.7l-2.1-0.3c-1.3-0.2,0-0.7-1.2-1.8c-1.1-1-2.9,0-2.9,0
	c0-1-0.7-1.7-1.8-1.7c-0.6,0-1.4,0.1-1.8,0.3l-0.9,0.7c-1.1,0-1.4-1-2.6-1c-1.3,0-1.8,1-2.3,1.6c-0.9-0.4-1-1.1-2.1-1.1
	c-0.7,0-0.9,0.7-1.2,1.1c-0.7,0.8-0.7,1.7-1.9,2.1l-0.4-0.8c0-0.1,0-0.1,0-0.1c-1.7,0.8-5.6,9.6-5.6,11.4c0,1.7,1.5,1,1.5,2.8
	c0,1.1-1.6,1.9-1.6,2.8c0,1.2,1.4,1.8,2.6,1.8"/>
<path fill="none" stroke="#004684" stroke-width="0.308" stroke-miterlimit="3.864" d="M-298.6,219.2c0.3,1.1,1.1,1.9,2.6,1.9
	c2.6,0,5.1-1.9,6.6-3c1.2-0.8,2.4-1.7,2.4-3.6l-0.2,0.7c0,0,2-2,7.1-0.4c1.4,0.5,7.4,3.8,8.7,4.4c1.1,0.5,5,3.3,11.1,2.2
	c0,0,9.3-1.3,7.2-10.8c-1.5-6.8-1-7.3-0.5-9.5c-0.2-0.1-5.7-1.3-5.5,6.2c-2.4,0.2-5.4,2-3.4,6.7c0.8-1.2,1.9-2.5,3.3-2.5
	c0.9,0,1.9,1.3,2,2.3c0.2,2.4-2.3,3.4-5.2,3c-1.5-0.2-2.9-1.9-5-3.4c0.4-0.2,0.7-1.4,0.7-1.9c0-1.2-1-1.8-1.8-2.2
	c0.2-0.4,0.4-1,0.4-1.4c0-1-1.4-0.9-1.9-1.3c0.2-0.3,0.2-0.1,0.2-0.6c0-1.4,0.2-2.2-2.6-2.1c0.2-1.4-0.1-2.3-1-2.7l-2.1-0.3
	c-1.3-0.2,0-0.7-1.2-1.8c-1.1-1-2.9,0-2.9,0c0-1-0.7-1.7-1.8-1.7c-0.6,0-1.4,0.1-1.8,0.3l-0.9,0.7c-1.1,0-1.4-1-2.6-1
	c-1.3,0-1.8,1-2.3,1.6c-0.9-0.4-1-1.1-2.1-1.1c-0.7,0-0.9,0.7-1.2,1.1c-0.7,0.8-0.7,1.7-1.9,2.1l-0.4-0.8c0-0.1,0-0.1,0-0.1
	c-1.7,0.8-5.6,9.6-5.6,11.4c0,1.7,1.5,1,1.5,2.8c0,1.1-1.6,1.9-1.6,2.8c0,1.2,1.4,1.8,2.6,1.8L-298.6,219.2z"/>
<path fill="#004684" d="M-294.5,211.8c0,0,1.9,0.7,1.9,1.1c0,0.5-1.2,1.1-2,1.8h-1c0.4-1.2,0-0.8,0-1.8
	C-295.7,212.1-294.9,211.8-294.5,211.8"/>
<path fill="none" stroke="#004684" stroke-width="0.309" stroke-miterlimit="3.864" d="M-294.5,211.8c0,0,1.9,0.7,1.9,1.1
	c0,0.5-1.2,1.1-2,1.8h-1c0.4-1.2,0-0.8,0-1.8C-295.7,212.1-294.9,211.8-294.5,211.8z"/>
<path fill="none" stroke="#004684" stroke-width="0.309" stroke-miterlimit="3.864" d="M-287.6,208.6c1-0.5,0.5-1.7,2.1-1.7
	c1.4,0,1.9,1,3.2,1c0.9,0,1.5-0.8,2.6-0.8c1,0,2.4,1.4,2.2,3.1c0,0,3.6-1.2,3.5,2.7c2.9-1,2.6,1.4,2.9,2.6c0.3,1.1,2.2,0.2,1.9,2.6"
	/>
<path fill="#FFFFFF" d="M-326.5,199.6h2.9c2.2-0.5,2.9-1.7,5.1-1.7c1.6,0,2.3,1,3.5,1c1,0,2.5-1.1,4.2-1.1c1.7,0,2.5,1,3.6,1.5
	c1,0.4,2.3,0.4,3.6,0.4c0,1,0,1.6,0,2.4c0,0.8,1.1,0.5,1.1,1.9c0,1.4-1.5,1.2-1.5,1.7l-0.1,5.4c0.1,0.7,1.4,0.8,1.4,1.8
	c0,1.5-1.5,1-1.4,2.2c0.1,0.9,0,2.7,0,2.7c-2.9,0-21.1,0-22,0c0.1-2,0-1.7,0-2.7c0.1-0.8-1.7-1.2-1.7-2.5c0-0.9,1-0.8,1.1-1.7v-5.3
	c-0.1-0.7-1.6-1-1.6-2c0.1-1.2,1.5-1,1.5-1.8C-326.5,201.2-326.5,199.9-326.5,199.6"/>
<path fill="none" stroke="#004684" stroke-width="0.309" stroke-miterlimit="3.864" d="M-326.5,199.6h2.9c2.2-0.5,2.9-1.7,5.1-1.7
	c1.6,0,2.3,1,3.5,1c1,0,2.5-1.1,4.2-1.1c1.7,0,2.5,1,3.6,1.5c1,0.4,2.3,0.4,3.6,0.4c0,1,0,1.6,0,2.4c0,0.8,1.1,0.5,1.1,1.9
	c0,1.4-1.5,1.2-1.5,1.7l-0.1,5.4c0.1,0.7,1.4,0.8,1.4,1.8c0,1.5-1.5,1-1.4,2.2c0.1,0.9,0,2.7,0,2.7c-2.9,0-21.1,0-22,0
	c0.1-2,0-1.7,0-2.7c0.1-0.8-1.7-1.2-1.7-2.5c0-0.9,1-0.8,1.1-1.7v-5.3c-0.1-0.7-1.6-1-1.6-2c0.1-1.2,1.5-1,1.5-1.8
	C-326.5,201.2-326.5,199.9-326.5,199.6z"/>
<path fill="none" stroke="#004684" stroke-width="0.309" stroke-miterlimit="3.864" d="M-324.1,199.7c0,0,0,11.9,0,14.7
	c0,0,17.4,0,18.1,0c0-3.2,0-14.8,0-14.8"/>
<line fill="none" stroke="#004684" stroke-width="0.309" stroke-miterlimit="3.864" x1="-315" y1="199" x2="-315" y2="214.5"/>
<path fill="#004684" d="M-314.8,212.5c0.8,0,2.2,0.6,3.5,1c1.8,0.5,3.6,0.2,5,0.4c0.4,0.1-8.6,0.2-8.6,0.2
	C-314.7,212.4-314.8,212.5-314.8,212.5"/>
<path fill="none" stroke="#004684" stroke-width="0.309" stroke-miterlimit="3.864" d="M-314.8,212.5c0.8,0,2.2,0.6,3.5,1
	c1.8,0.5,3.6,0.2,5,0.4c0.4,0.1-8.6,0.2-8.6,0.2C-314.7,212.4-314.8,212.5-314.8,212.5z"/>
<path fill="#004684" d="M-316,214.8c0-0.4,0.4-0.7,1-0.7c0.6,0,1,0.3,1,0.7c0,0.4-0.5,0.7-1,0.7C-315.6,215.5-316,215.2-316,214.8"
	/>
<ellipse fill="none" stroke="#004684" stroke-width="0.309" stroke-miterlimit="3.864" cx="-315" cy="214.8" rx="1" ry="0.7"/>
<path fill="#004684" d="M-315.5,212.5c-0.8,0-2.2,0.6-3.5,1c-1.8,0.5-3.6,0.2-5,0.4c-0.4,0.1,8.6,0.2,8.6,0.2
	C-315.6,212.4-315.5,212.5-315.5,212.5"/>
<path fill="none" stroke="#004684" stroke-width="0.309" stroke-miterlimit="3.864" d="M-315.5,212.5c-0.8,0-2.2,0.6-3.5,1
	c-1.8,0.5-3.6,0.2-5,0.4c-0.4,0.1,8.6,0.2,8.6,0.2C-315.6,212.4-315.5,212.5-315.5,212.5z"/>
<path fill="#FFFFFF" d="M-312,268.5c0-5,4.2-9.1,9.4-9.1c5.2,0,9.4,4.1,9.4,9.1c0,5-4.2,9.1-9.4,9.1
	C-307.8,277.5-312,273.5-312,268.5"/>
<ellipse fill="none" stroke="#004684" stroke-width="0.309" stroke-miterlimit="3.864" cx="-302.6" cy="268.5" rx="9.4" ry="9.1"/>
<path fill="#FFFFFF" d="M-286.2,246.7c0-5,4.2-9.1,9.4-9.1c5.2,0,9.4,4.1,9.4,9.1c0,5-4.2,9-9.4,9
	C-282,255.8-286.2,251.7-286.2,246.7"/>
<ellipse fill="none" stroke="#004684" stroke-width="0.308" stroke-miterlimit="3.864" cx="-276.8" cy="246.7" rx="9.4" ry="9.1"/>
<path fill="#FFFFFF" d="M-261.8,268.5c0-5,4.2-9.1,9.4-9.1c5.2,0,9.4,4.1,9.4,9.1c0,5-4.2,9.1-9.4,9.1
	C-257.6,277.5-261.8,273.5-261.8,268.5"/>
<ellipse fill="none" stroke="#004684" stroke-width="0.309" stroke-miterlimit="3.864" cx="-252.4" cy="268.5" rx="9.4" ry="9.1"/>
<path fill="none" stroke="#004684" stroke-width="0.309" stroke-miterlimit="3.864" d="M-267.3,212.9c-2.4-2.6-4.5-5.8-4.9-5.9
	c-1.2-0.5-4-6.1-11.6-6.5c-1.9-0.1-9.2,0.6-9.4,2.5"/>
<path fill="none" stroke="#004684" stroke-width="0.309" stroke-miterlimit="3.864" d="M-286.9,215c0-0.2,0-0.4,0-0.6
	c0-0.3-1.8-0.1-2.2-0.3c-0.3-0.1,0.8-0.5,0.6-0.5c1.1-0.4,3.9-1.7,2.9-2.6c-0.9-0.9-1.5-1.9-2-2.5c-0.7-0.8-1.5-1.2-2.8-1.2
	c-1.1,0-2.9,1.9-3.7,2.5c0.5-0.5,2.1-1.9,2.1-3c0-2.5-2-4.7-2.6-6.8"/>
<path fill="none" stroke="#004684" stroke-width="0.309" stroke-miterlimit="3.864" d="M-297.8,218.8c2,0,3.1-0.1,4.1-0.6
	c1-0.5,2.9-1.7,3.4-2.7"/>
<path fill="none" stroke="#004684" stroke-width="0.608" stroke-miterlimit="3.864" d="M-330.6,191.4h107.8v53.9
	c-0.7,43.9-50,67-56.2,66.8c-6.4-0.2-51.8-22.8-51.7-67.1C-330.6,244.2-330.6,191.4-330.6,191.4z"/>
</svg>
