<?xml version="1.0" encoding="utf-8"?>
<!-- Generator: Adobe Illustrator 18.0.0, SVG Export Plug-In . SVG Version: 6.00 Build 0)  -->
<!DOCTYPE svg PUBLIC "-//W3C//DTD SVG 1.1//EN" "http://www.w3.org/Graphics/SVG/1.1/DTD/svg11.dtd">
<svg version="1.1" xmlns="http://www.w3.org/2000/svg" xmlns:xlink="http://www.w3.org/1999/xlink" x="0px" y="0px"
	 viewBox="0 0 125.6 29.7" enable-background="new 0 0 125.6 29.7" xml:space="preserve">
	<path fill="#548EB7" d="M66,0c1.4,3.1,2.8,6.2,4.2,9.4c0.8,1.8,1.6,3.6,2.4,5.3c0.1,0.2,0.2,0.3,0.4,0.3c0.9,0.1,1.8,0.1,2.7,0.2
		c1,0.1,2.1,0.2,3.1,0.4c1.4,0.2,2.8,0.4,4.2,0.7c2,0.4,4.1,0.9,6.1,1.4c0.2,0.1,0.5,0.1,0.7,0.2c0-5.3,0-10.5,0-15.8
		c-2.5,0-4.9,0-7.4,0c0-0.5,0-0.9,0-1.3c0-0.1,0.1-0.1,0.2-0.1c0.1,0,0.2,0,0.2,0c5.6,0,11.2,0,16.8,0c0.1,0,0.2,0,0.4,0
		c0,0.5,0,1,0,1.5c-2.4,0-4.9,0-7.3,0c0,0.1,0,0.3,0,0.4c0,5.3,0,10.7,0,16c0,0.2,0,0.4,0.3,0.4c6.5,2.1,12.6,4.9,18.4,8.4
		c1,0.6,2,1.2,3,1.8c0.1,0.1,0.1,0.2,0.2,0.3c-0.1,0-0.3,0.1-0.4,0c-5.3-2.7-10.8-4.8-16.5-6.5c-1.6-0.5-3.2-0.9-4.8-1.3
		c-0.1,0-0.2,0-0.3,0c0,0.4,0,0.8,0,1.2c-1,0-1.9,0-2.9,0c0-0.6,0-1.3,0-1.9c-5.1-1.2-10.3-2-15.5-2.4c1.7,3.7,3.3,7.4,5,11.2
		c-0.2,0-0.3,0-0.4,0c-0.9,0-1.9,0-2.8,0c-0.3,0-0.4-0.1-0.5-0.3c-1.5-3.6-3.1-7.2-4.6-10.8c-0.1-0.3-0.3-0.4-0.6-0.4
		c-2.3,0-4.5-0.1-6.8-0.1c-1.4,0-2.8,0.1-4.2,0.1c-0.2,0-0.3,0.1-0.4,0.3c-1.4,3.6-2.8,7.2-4.2,10.8c-0.1,0.3-0.2,0.4-0.5,0.4
		c-0.6,0-1.2,0-1.9,0c1.6-3.8,3.2-7.5,4.9-11.3c-0.6,0-1.2,0.1-1.7,0.1c-0.8,0.1-1.6,0.2-2.4,0.2c-0.8,0.1-1.7,0.2-2.5,0.3
		c-0.9,0.1-1.7,0.2-2.6,0.4c-1,0.1-2,0.3-3,0.5c-1,0.2-2,0.4-3,0.5c-0.2,0-0.3,0.1-0.3,0.3c0,0.6,0,1.2,0,1.8c0,0.1,0,0.2,0,0.4
		c-1,0-1.9,0-2.9,0c0-0.6,0-1.2,0-1.8c-0.6,0.1-1.1,0.2-1.7,0.4c-4.2,1-8.4,2.2-12.5,3.6c-3.8,1.3-7.5,2.9-11.1,4.7
		c-0.2,0.1-0.4,0.3-0.5,0c-0.1-0.2,0.2-0.3,0.3-0.4c3.4-2.1,7-4.1,10.6-5.8c4.7-2.2,9.5-4,14.5-5.3c0.3-0.1,0.3-0.2,0.3-0.4
		c0-1.4,0-2.7,0-4.1c0-0.2-0.1-0.4-0.2-0.6c-2.6-4-5.2-8-7.7-12c-0.1-0.1-0.1-0.2-0.2-0.4c0.1,0,0.2,0,0.3,0c0.8,0,1.7,0,2.5,0
		c0.3,0,0.4,0.1,0.5,0.3c2.1,3.6,4.2,7.2,6.4,10.8c0.1,0.1,0.1,0.2,0.2,0.4c0.1-0.1,0.1-0.2,0.2-0.3c2.2-3.6,4.4-7.3,6.6-10.9
		c0.1-0.2,0.3-0.3,0.5-0.3c0.6,0,1.2,0,1.8,0c-0.1,0.2-0.2,0.3-0.2,0.4c-2.5,3.8-5,7.6-7.6,11.4c-0.2,0.3-0.3,0.6-0.3,1
		c0,1.2,0,2.3,0,3.5c0,0.1,0,0.2,0,0.4c0.5-0.1,0.9-0.2,1.4-0.3c1.9-0.4,3.8-0.7,5.7-1c1.3-0.2,2.7-0.4,4-0.6
		c1-0.1,1.9-0.2,2.9-0.3c0.9-0.1,1.8-0.1,2.8-0.2c0.2,0,0.3-0.1,0.3-0.3c0.9-2.1,1.8-4.1,2.7-6.2C62.6,5.7,63.8,3,65,0.3
		C65,0.2,65,0.1,65.1,0C65.4,0,65.7,0,66,0z M64.7,3.8C64.7,3.8,64.7,3.8,64.7,3.8c-1.5,3.6-2.9,7.3-4.3,10.9c3,0,6,0,9,0
		C67.8,11.1,66.3,7.5,64.7,3.8z"/>
	<path fill="#548EB7" d="M0,0.6c0.8,0,1.6,0,2.4,0c0.1,0,0.3,0,0.4,0c0,3.2,0,6.3,0,9.5c4.2,0,8.4,0,12.7,0c0-0.1,0-0.3,0-0.4
		c0-2.9,0-5.8,0-8.7c0-0.3,0.1-0.4,0.4-0.4c0.8,0,1.7,0,2.5,0c0,7.4,0,14.7,0,22.1c-0.9,0-1.9,0-2.9,0c0-3.7,0-7.4,0-11.1
		c-4.2,0-8.4,0-12.7,0c0,3.7,0,7.4,0,11.1c-1,0-1.9,0-2.9,0C0,15.3,0,7.9,0,0.6z"/>
	<path fill="#548EB7" d="M125.6,0.6c0,0.5,0,0.9,0,1.5c-2.2,0-4.4,0-6.6,0c0,6.9,0,13.7,0,20.6c-1,0-1.9,0-2.9,0
			c0-6.9,0-13.7,0-20.6c-2.2,0-4.4,0-6.7,0c0-0.5,0-1,0-1.5C114.8,0.6,120.1,0.6,125.6,0.6z"/>
</svg>
