<?xml version="1.0" encoding="utf-8"?>
<!-- Generator: Adobe Illustrator 18.1.0, SVG Export Plug-In . SVG Version: 6.00 Build 0)  -->
<!DOCTYPE svg PUBLIC "-//W3C//DTD SVG 1.1//EN" "http://www.w3.org/Graphics/SVG/1.1/DTD/svg11.dtd">
<svg version="1.1" id="Layer_1" xmlns="http://www.w3.org/2000/svg" xmlns:xlink="http://www.w3.org/1999/xlink" x="0px" y="0px"
   width="790.2px" height="601.4px" viewBox="154.5 -49.4 790.2 601.4" enable-background="new 154.5 -49.4 790.2 601.4"
   xml:space="preserve">
  <path fill="#FFB500" d="M509.4-43c16.4-1,32.8-0.7,49.2-0.7c20.3,0,40.5,1.6,60.7,3.7C680-33.2,740.7-18.9,795.1,9.5
    c0,96.8,0,193.7,0,290.5c-0.1,36.3-9.5,73.2-29.8,103.5c-11.4,17.2-26,32.3-42.7,44.4c-14.4,10.2-29.8,18.8-45.2,27.1
    c-42.6,22.5-86.5,42.5-130.7,61.5c-38.9-16.8-77.5-34.3-115.2-53.5c-17.8-9.2-35.6-18.6-52.4-29.5c-20.9-13.3-38.8-31.2-52.2-52
    c-19.5-30-28.3-66-28.5-101.5c0-96.8,0.1-193.6,0-290.4c22.1-11.9,45.6-21,69.6-28.4C413.7-32.8,461.5-40.2,509.4-43z M439.3,53.7
    c-44,19.2-84.8,45.4-120.5,77.5c-1.2,0.9-0.6,2.6-0.8,3.8c0.1,46,0,92,0,138c0.1,20.3-0.9,40.9,3.2,61c2.4,13.1,6.4,26,11.9,38.2
    c11.1,24.4,28.9,45.8,50.7,61.3c15.5,10.8,32.2,19.7,48.8,28.5c37.3,19.3,75.5,36.7,113.9,53.5c39.9-17.3,79.4-35.4,117.9-55.6
    c18.5-10,37.3-19.9,53.7-33.2c27.8-22.7,46.9-55.5,53.5-90.7c4.8-22,3.4-44.7,3.6-67.1c0-85.1,0-170.3,0-255.4
    c-26.5-2.3-53.2-4.2-79.8-4.4c-9.3-0.4-18.7-0.5-28-0.1C589.6,9.8,510.9,22.4,439.3,53.7z"/>
  <path fill="#FFB500" d="M494.2,156.7c18.7-11.9,41.4-15.9,63.3-15.1c18.9,0.5,37.9,7.6,51,21.5c16.1,16.8,22.9,40.2,25.1,62.8
    c1.9,23.9,0.3,48.4-7.8,71.1c-5.8,15.9-15.5,31-29.8,40.5c-16.8,11.4-38.6,13.7-57.9,8.8c0,30.1,0,60.3,0,90.4
    c-14.6,0-29.2,0-43.8,0C494.2,343.3,494.2,250,494.2,156.7z M538,179.1c0,44,0,88,0,132c9.8,3.4,21.2,3.8,30.3-1.5
    c6.7-3.8,11.2-10.6,14.1-17.6c4.5-11.1,6-23.1,6.7-34.9c0.7-8.7,0.7-17.4,0.1-26.1c-0.7-13.2-2-26.9-8-38.8
    c-3.8-7.9-11.3-14-20.1-15.5C553.4,175.6,545.2,175.8,538,179.1z"/>
  <path fill="#FFB500" d="M673,149.7c15-8.4,33-10,49.7-6.5c10.2,2,20,6.1,28.4,12.2c-0.1,12.4,0.1,24.8-0.1,37.2
    c-9.8-9.5-22.7-16.3-36.4-17.4c-8.1-0.5-17,0.9-23,6.8c-5.7,5.5-6.5,14.4-4.4,21.7c3.1,8.9,11.7,13.9,19.3,18.4
    c15.5,8.7,31.6,18,41.9,32.9c8.5,12,10.5,27.5,8.9,41.9c-1.5,13.1-7.2,26-16.7,35.3c-10.3,10.4-24.7,15.9-39.2,16.9
    c-19.2,1.7-38.7-3.5-55.4-13c0-13.1,0-26.3,0-39.4c9.9,8.2,21.7,14.3,34.3,16.6c8.9,1.3,19.1,0.9,26.3-5.2c8.5-6.9,9.4-19.8,5-29.2
    c-5.1-9.4-14.9-14.8-23.7-20.1c-15.2-8.9-31.1-19.2-38.9-35.6c-5.1-11.6-6-24.8-3.8-37.2C648.4,170.4,659.2,157.1,673,149.7z"/>
  <path fill="#FFB500" d="M340.4,145.8c14.6,0,29.2,0,43.8,0c0.1,43.7,0,87.5,0.1,131.2c0.1,6.1-0.3,12.3,1.3,18.2
    c1.4,6.1,4.7,12.2,10.5,15.2c3.5,2,7.6,2.5,11.5,2.6c7.1,0,14.2-1.5,20.4-5c0.3-54.1,0-108.1,0.1-162.2c14.6,0,29.1,0,43.7,0
    c0,62.1,0,124.2,0,186.3c-20.9,13.8-46.6,17.9-71.2,17.2c-16.2-0.6-33.2-5.5-44.4-17.8c-11.4-12.5-15.1-30-15.7-46.5
    C340.3,238.6,340.3,192.2,340.4,145.8z"/>
  <path fill="#FFFFFF" d="M703,510.8c6.5-1.6,13.8,0.5,18.4,5.2c5.1,5.2,6.9,13.4,4,20.1c-3.2,8.2-12.5,13.1-21.1,11.5
    c-7.5-1.1-14.1-7.1-15.6-14.6C686.3,523.3,693.3,512.8,703,510.8z M699.2,515.2c0,9.2,0,18.4,0,27.6c1.7,0,3.4,0,5.1,0
    c0-4-0.1-8,0.1-12.1c3,3.7,5.6,7.8,8.1,11.9c2.2,0.3,4.4,0.5,6.6,0.4c-2.7-4.2-5.6-8.2-8.5-12.3c5.3-1.1,8.3-7.5,5-12
    C711.9,513.5,704.6,515.6,699.2,515.2z"/>
  <path fill="#FFFFFF" d="M704.3,519.2c3.1-0.2,7.2-0.1,7.7,3.8c-0.4,4-4.4,4.6-7.7,4.4C704.3,524.7,704.3,521.9,704.3,519.2z"/>
  <path fill="#FFB500" d="M488.7-47.1c17.2-1.4,34.5-2.5,51.8-2.2c55.6-0.8,111.3,5.5,165.2,19.2c32.9,8.6,65,20.2,95.1,36.2
    c0.1,87,0,173.9,0,260.9c-0.2,21.7,1.1,43.6-2.5,65.1c-5.6,38.4-23.4,75.2-51.2,102.4c-13.6,13.9-30,24.6-46.8,34.3
    c-33.2,19-67.8,35.4-102.5,51.4c-17,7.6-33.9,15.5-51.1,22.4c-11-4.3-21.8-9.4-32.7-14.1c-39-17.5-77.8-35.6-115.2-56.4
    c-17.2-9.7-34.2-20.1-48.6-33.7c-22.3-20.8-39.1-47.3-48.2-76.4c-6.7-21-9.6-43-9.5-65c0-97-0.1-194,0.1-291
    C353.1-25.8,421-41.1,488.7-47.1z M509.4-43c-47.9,2.8-95.6,10.3-141.6,24.3c-23.9,7.4-47.5,16.5-69.6,28.4
    c0.1,96.8,0,193.6,0,290.4c0.2,35.5,9,71.5,28.5,101.5c13.4,20.8,31.4,38.7,52.2,52c16.8,11,34.6,20.3,52.4,29.5
    c37.7,19.2,76.3,36.7,115.2,53.5c44.2-19,88.1-39,130.7-61.5c15.5-8.3,30.9-16.9,45.2-27.1c16.7-12.1,31.2-27.2,42.7-44.4
    c20.3-30.4,29.7-67.2,29.8-103.5c0-96.8,0-193.7,0-290.5C740.7-18.9,680-33.2,619.3-40.1c-20.2-2-40.4-3.7-60.7-3.7
    C542.2-43.7,525.8-44.1,509.4-43z"/>
  <path fill="#512E2E" d="M439.3,53.7C510.9,22.4,589.6,9.8,667.5,9.1c9.3-0.4,18.7-0.3,28,0.1c26.7,0.1,53.2,2.1,79.8,4.4
    c0,85.1,0,170.3,0,255.4c-0.2,22.4,1.2,45-3.6,67.1c-6.6,35.2-25.7,67.9-53.5,90.7C701.8,440,683,449.9,664.5,460
    c-38.5,20.1-78.1,38.3-117.9,55.6c-38.4-16.8-76.6-34.2-113.9-53.5c-16.6-8.8-33.3-17.8-48.8-28.5c-21.9-15.5-39.6-36.9-50.7-61.3
    c-5.6-12.2-9.5-25.1-11.9-38.2c-4.1-20-3.1-40.6-3.2-61c0-46,0-92,0-138c0.2-1.2-0.4-2.9,0.8-3.8
    C354.4,99.1,395.3,72.9,439.3,53.7z M494.2,156.7c0,93.3,0,186.6,0,279.9c14.6,0.1,29.2,0,43.8,0c0-30.1,0-60.3,0-90.4
    c19.4,4.9,41.2,2.6,57.9-8.8c14.3-9.5,24-24.6,29.8-40.5c8.2-22.7,9.7-47.2,7.8-71.1c-2.2-22.6-9-46-25.1-62.8
    c-13.1-13.9-32.2-21-51-21.5C535.6,140.8,512.9,144.9,494.2,156.7z M673,149.7c-13.8,7.4-24.6,20.8-27.6,36.3
    c-2.2,12.4-1.3,25.6,3.8,37.2c7.9,16.4,23.7,26.7,38.9,35.6c8.8,5.4,18.6,10.7,23.7,20.1c4.4,9.4,3.5,22.3-5,29.2
    c-7.2,6.1-17.4,6.5-26.3,5.2c-12.7-2.3-24.4-8.5-34.3-16.6c0,13.1,0,26.3,0,39.4c16.7,9.5,36.1,14.6,55.4,13
    c14.4-1,28.9-6.5,39.2-16.9c9.5-9.3,15.2-22.1,16.7-35.3c1.5-14.4-0.4-29.8-8.9-41.9c-10.4-14.9-26.5-24.2-41.9-32.9
    c-7.7-4.5-16.2-9.6-19.3-18.4c-2.1-7.3-1.3-16.2,4.4-21.7c6-5.8,14.9-7.3,23-6.8c13.7,1.1,26.6,7.9,36.4,17.4
    c0.2-12.4,0-24.8,0.1-37.2c-8.4-6.1-18.2-10.2-28.4-12.2C706,139.7,687.9,141.3,673,149.7z M340.4,145.8c0,46.4-0.1,92.8,0,139.2
    c0.6,16.5,4.3,33.9,15.7,46.5c11.2,12.3,28.2,17.2,44.4,17.8c24.6,0.8,50.3-3.4,71.2-17.2c0-62.1,0-124.2,0-186.3
    c-14.6,0-29.1,0-43.7,0c-0.2,54.1,0.1,108.1-0.1,162.2c-6.2,3.5-13.3,4.9-20.4,5c-4-0.1-8-0.6-11.5-2.6c-5.7-3-9.1-9.1-10.5-15.2
    c-1.6-5.9-1.2-12.1-1.3-18.2c0-43.8,0.1-87.5-0.1-131.2C369.6,145.8,355,145.8,340.4,145.8z"/>
  <path fill="#512E2E" d="M538,179.1c7.2-3.3,15.4-3.5,23.1-2.5c8.8,1.5,16.2,7.6,20.1,15.5c6,12,7.3,25.6,8,38.8
    c0.7,8.7,0.7,17.4-0.1,26.1c-0.7,11.9-2.1,23.9-6.7,34.9c-2.9,7-7.4,13.8-14.1,17.6c-9.1,5.4-20.6,4.9-30.3,1.5
    C538,267.1,538,223.1,538,179.1z"/>
  <path fill="#512E2E" d="M702.9,506.6c11-2.4,23.2,4.3,26.7,15.1c3.8,10-0.9,22.1-10.3,27.2c-10.1,6-24.5,3.1-31.1-6.7
    c-4.7-6.4-5.6-15.4-2.1-22.6C689.3,512.9,695.7,508,702.9,506.6z M703,510.8c-9.7,2.1-16.7,12.6-14.3,22.3
    c1.5,7.5,8.1,13.5,15.6,14.6c8.6,1.6,17.9-3.4,21.1-11.5c2.9-6.7,1.1-14.9-4-20.1C716.7,511.2,709.5,509.1,703,510.8z"/>
  <path fill="#512E2E" d="M699.2,515.2c5.4,0.4,12.8-1.8,16.4,3.6c3.3,4.5,0.3,11-5,12c2.9,4.1,5.8,8.1,8.5,12.3
    c-2.2,0-4.4-0.1-6.6-0.4c-2.5-4.1-5-8.2-8.1-11.9c-0.2,4-0.1,8-0.1,12.1c-1.7,0-3.4,0-5.1,0C699.2,533.6,699.2,524.4,699.2,515.2z
     M704.3,519.2c0,2.7,0,5.4,0,8.2c3.3,0.2,7.2-0.4,7.7-4.4C711.4,519.1,707.4,519,704.3,519.2z"/>
</svg>
