<?xml version="1.0" encoding="utf-8"?>
<!-- Generator: Adobe Illustrator 18.0.0, SVG Export Plug-In . SVG Version: 6.00 Build 0)  -->
<!DOCTYPE svg PUBLIC "-//W3C//DTD SVG 1.1//EN" "http://www.w3.org/Graphics/SVG/1.1/DTD/svg11.dtd">
<svg version="1.1" xmlns="http://www.w3.org/2000/svg" xmlns:xlink="http://www.w3.org/1999/xlink" x="0px" y="0px"
	 viewBox="0 0 134.9 68.5" enable-background="new 0 0 134.9 68.5" xml:space="preserve">
	<path fill="#67B851" d="M134.9,21.8c-0.1,0.5-0.1,1-0.2,1.4c-0.2,1.2-0.4,2.3-0.8,3.4c-0.1,0.3-0.3,0.3-0.5,0.3
		c-5.3,0-10.6,0-15.8,0c-0.1,0-0.2,0-0.4,0c0.3-0.4,0.5-0.6,0.7-0.9c0.1-0.2,0.3-0.1,0.5-0.1c3.7,0,7.3,0,11,0c0.1,0,0.2,0,0.3,0
		c0.3,0,0.6-0.1,0.6-0.4c0-0.4-0.3-0.4-0.6-0.4c-3.6,0-7.1,0-10.7,0c-0.1,0-0.1,0-0.3,0c0.2-0.4,0.5-0.7,0.7-1
		c0.1-0.1,0.3-0.1,0.4-0.1c1.8,0,3.5,0,5.3,0c0.1,0,0.2,0,0.3,0c0.3,0,0.4-0.2,0.4-0.5c0-0.2-0.1-0.4-0.4-0.4c-0.1,0-0.3,0-0.4,0
		c-5,0-9.9,0-14.9,0c-0.2,0-0.3,0-0.6-0.1c3.2-4.2,6.4-8.4,9.7-12.6c-0.2-0.1-0.3-0.1-0.4-0.1c-5,0-10.1,0-15.1,0
		c-0.4,0-0.5,0.1-0.5,0.5c0,0.9,0,1.7,0,2.6c0,0.3,0.1,0.4,0.4,0.4c2.5,0,5.1,0,7.6,0c0.2,0,0.3,0,0.6,0
		c-3.6,4.7-7.2,9.3-10.7,13.9c0.1,0.1,0.2,0.1,0.3,0.1c2.2,0,4.3,0,6.5,0c0.2,0,0.3-0.1,0.5-0.3c0.8-1.5,2-2.3,3.7-2.3
		c1.6,0,2.9,0.8,3.6,2.3c0.1,0.3,0.3,0.3,0.5,0.3c5.6,0,11.2,0,16.9,0c0.6,0,0.6,0,0.4,0.5c-1.2,2.8-2.9,5.2-5.2,7.2
		c-2.8,2.5-6,4.1-9.6,4.8c-1,0.2-2,0.3-3.1,0.3c-2.7,0.2-5.2-0.3-7.7-1.1c-2.3-0.8-4.4-2-6.2-3.6c-1.5-1.3-2.8-2.8-3.9-4.4
		c-1.5-2.3-2.6-4.9-3-7.7c-0.2-1.2-0.3-2.5-0.3-3.7c0-2.8,0.6-5.5,1.8-8.1c1.2-2.7,2.9-4.9,5-6.9c2.2-2,4.7-3.4,7.4-4.3
		c1.5-0.5,3-0.8,4.5-0.9c0.1,0,0.1,0,0.2-0.1c1,0,1.9,0,2.9,0c0.1,0.1,0.2,0.1,0.4,0.1c0.5,0,0.9,0.1,1.4,0.1
		c2.5,0.4,4.8,1.2,7,2.5c2,1.2,3.8,2.7,5.3,4.4c1.3,1.5,2.4,3.2,3.2,5.1c0.7,1.7,1.2,3.5,1.5,5.3c0.1,0.5,0.1,1,0.2,1.5
		C134.9,19.9,134.9,20.8,134.9,21.8z M115,29.3c0-1.8-1.4-3.1-3.1-3.1c-1.8,0-3.1,1.4-3.1,3.2c0,1.6,1.4,3.1,3.2,3.1
		C113.5,32.5,115.2,31.1,115,29.3z"/>
	<path fill="#6E6F71" d="M32.9,58.6c0,3.1,0,6.2,0,9.4c0,0.4-0.1,0.5-0.5,0.5c-1,0-2.1,0-3.1,0c-0.3,0-0.4-0.1-0.4-0.4
		c0-8.9,0-17.9,0-26.8c0-0.3,0.1-0.4,0.4-0.4c1.1,0,2.1,0,3.2,0c0.3,0,0.4,0.1,0.4,0.4c0,0.5,0,1.1,0,1.7c0.5-0.5,1-0.9,1.5-1.2
		c3.1-1.9,7.3-1.2,9.3,2.2c0.5,0.9,0.7,1.9,0.8,2.9c0.2,1.9,0.2,3.9,0.1,5.8c0,1.3,0,2.6-0.4,3.8c-0.7,2.2-2.2,3.6-4.4,4.2
		c-2.2,0.6-4.3,0.1-6.1-1.4c-0.1-0.1-0.3-0.2-0.4-0.3c-0.1-0.1-0.2-0.3-0.3-0.4C33,58.6,32.9,58.6,32.9,58.6z M40.7,50.7
		c0-0.9,0-1.9-0.2-2.9c-0.2-0.9-0.5-1.7-1.2-2.3c-1.1-0.8-2.3-0.9-3.5-0.6c-1.1,0.2-1.8,0.8-2.2,1.8c-0.4,0.8-0.5,1.7-0.5,2.6
		c-0.1,1.5-0.1,3,0.2,4.5c0.2,1.1,0.6,2.1,1.7,2.7c0.8,0.4,1.6,0.5,2.5,0.4c1.5-0.1,2.6-0.9,3-2.5C40.7,53.2,40.7,52,40.7,50.7z"/>
	<path fill="#6E6F71" d="M77.7,58.9c-1.1,1.5-2.6,1.8-4.3,1.9c-1.4,0-2.8-0.1-4.1-0.7c-1.9-0.8-3.3-2.9-3.4-5
		c0-1.3,0.2-2.5,0.9-3.6c0.9-1.4,2.2-2.1,3.8-2.4c0.5-0.1,1-0.2,1.5-0.2c1.7,0,3.4,0,5.1,0c0.4,0,0.5-0.1,0.5-0.5c0-0.5,0-1,0-1.5
		c0-1.5-0.8-2.1-2-2.4c-1.2-0.2-2.5-0.2-3.7,0c-0.7,0.1-1.3,0.4-1.7,1c-0.2,0.3-0.4,0.3-0.6,0.1c-0.8-0.6-1.6-1.2-2.4-1.8
		c-0.3-0.2-0.3-0.4-0.1-0.7c1.1-1.3,2.6-2,4.3-2.3c0.9-0.2,1.9-0.2,2.8-0.1c1.6,0.1,3.3,0.3,4.7,1.1c1.4,0.8,2.2,2.1,2.6,3.6
		c0.1,0.7,0.2,1.4,0.2,2.1c0,4.2,0,8.3,0,12.5c0,0.4-0.1,0.5-0.5,0.5c-1.1,0-2.1,0-3.2,0c-0.3,0-0.4-0.1-0.4-0.4
		C77.7,59.8,77.7,59.4,77.7,58.9z M77.7,53.5c0-0.3,0-0.6,0-0.8c0-0.3-0.1-0.4-0.4-0.4c-1.4,0-2.8,0-4.2,0c-0.7,0-1.5,0-2.2,0.3
		c-0.7,0.3-1.2,0.8-1.3,1.5c-0.2,1.3,0.3,2.2,1.6,2.6c1.6,0.5,3.2,0.4,4.8,0.1c0.9-0.2,1.4-0.8,1.5-1.7
		C77.7,54.6,77.7,54.1,77.7,53.5z"/>
	<path fill="#6E6F71" d="M9.8,44.5c-0.4,0-0.7,0-1,0c-2.6,0-5.2,0-7.8,0c-0.3,0-0.4-0.1-0.4-0.4c0-0.9,0-1.9,0-2.8
		c0-0.3,0.1-0.4,0.4-0.4c4.5,0,8.9,0,13.4,0c0.3,0,0.4,0.1,0.4,0.4c0,0.7,0,1.5,0,2.2c0,0.5-0.1,0.8-0.4,1.1
		c-2.2,2.8-4.3,5.6-6.5,8.4c-0.9,1.2-1.9,2.4-2.8,3.6c0,0,0,0.1-0.1,0.1c0.2,0,0.3,0,0.5,0c2.9,0,5.9,0,8.8,0
		c0.4,0,0.5,0.1,0.5,0.5c0,1,0,2,0,3c0,0.3-0.1,0.3-0.3,0.3c-4.7,0-9.4,0-14,0c-0.2,0-0.3-0.1-0.3-0.3c0-0.9,0-1.8,0-2.7
		c0-0.2,0.1-0.3,0.2-0.5c2.1-2.8,4.3-5.6,6.4-8.4c1-1.3,1.9-2.6,2.9-3.8C9.6,44.8,9.7,44.7,9.8,44.5z"/>
	<path fill="#6E6F71" d="M57,60.8c-2.4,0-4.6-0.8-6.3-2.5c-1.2-1.2-1.9-2.8-2.2-4.5c-0.2-0.9-0.3-1.9-0.3-2.9
		c0-2.6,0.5-5.1,2.2-7.2c1.3-1.6,2.9-2.5,4.9-2.8c1.7-0.3,3.3-0.2,4.9,0.4c1,0.4,2,0.9,2.8,1.6c0.4,0.3,0.8,0.7,1.1,1.1
		c0.1,0.1,0.2,0.1,0,0.3c-0.9,0.7-1.7,1.5-2.5,2.3c-0.2,0.2-0.3,0.2-0.4,0c-1.1-1.3-2.5-1.9-4.2-1.8c-1.7,0.1-3.1,0.7-3.9,2.3
		c-0.4,0.8-0.6,1.7-0.7,2.6c-0.1,1.3-0.1,2.6,0.3,3.8c0.5,1.8,1.8,3,3.6,3.3c1.9,0.3,3.5-0.2,4.9-1.6c0.2-0.2,0.3-0.3,0.6,0
		c0.7,0.7,1.5,1.4,2.3,2.1c0.2,0.2,0.2,0.3,0,0.6c-1.4,1.4-3,2.5-4.9,2.9C58.3,60.8,57.6,60.8,57,60.8z"/>
	<path fill="#6E6F71" d="M90.8,43.1c0.7-0.8,1.3-1.4,2.2-1.7c2.3-1,4.8-0.8,6.9,0.7c0.2,0.1,0.1,0.2,0,0.4c-0.8,1-1.7,2-2.5,3
		c-0.2,0.2-0.3,0.2-0.5,0c-1.5-1.1-3.4-0.9-4.6-0.1c-1,0.7-1.5,1.7-1.5,2.9c0,3.9,0,7.9,0,11.8c0,0.5,0,0.5-0.6,0.5
		c-1,0-2.1,0-3.1,0c-0.3,0-0.4-0.1-0.4-0.4c0-6.3,0-12.6,0-18.9c0-0.3,0.1-0.4,0.4-0.4c1.1,0,2.2,0,3.3,0c0.3,0,0.4,0.1,0.3,0.3
		C90.8,41.8,90.8,42.4,90.8,43.1z"/>
	<path fill="#6E6F71" d="M23.1,50.8c0,3.1,0,6.3,0,9.4c0,0.4-0.1,0.5-0.5,0.5c-1,0-2,0-3,0c-0.4,0-0.5-0.1-0.5-0.5
		c0-5.3,0-10.7,0-16c0-1,0-1.9,0-2.9c0-0.3,0.1-0.4,0.4-0.4c1.1,0,2.1,0,3.2,0c0.4,0,0.4,0.1,0.4,0.5
		C23.1,44.5,23.1,47.6,23.1,50.8z"/>
	<path fill="#6E6F71" d="M21.2,37c-0.6,0-1.1,0-1.7,0c-0.2,0-0.3,0-0.3-0.3c0-1.1,0-2.2,0-3.4c0-0.2,0.1-0.3,0.3-0.3
		c1.1,0,2.2,0,3.4,0c0.3,0,0.3,0.1,0.3,0.3c0,1.1,0,2.2,0,3.3c0,0.3-0.1,0.3-0.3,0.3C22.3,37,21.7,37,21.2,37z"/>
	<path fill="#767779" d="M99.6,59.3c-0.1,1.1-0.8,1.7-1.7,1.7c-0.9,0-1.7-0.8-1.7-1.7c0-0.9,0.7-1.7,1.7-1.7
		C98.8,57.6,99.6,58.4,99.6,59.3z M99.2,59.3c0-0.8-0.6-1.3-1.3-1.3c-0.8,0-1.3,0.5-1.3,1.3c0,0.8,0.6,1.3,1.3,1.4
		C98.6,60.7,99.3,60,99.2,59.3z"/>
	<path fill="#6E6F71" d="M115,29.3c0.1,1.8-1.6,3.2-3.1,3.2c-1.8,0-3.2-1.5-3.2-3.1c0-1.8,1.3-3.2,3.1-3.2
		C113.6,26.2,115.1,27.5,115,29.3z"/>
	<path fill="#767779" d="M98.6,60.2c-0.2,0.1-0.3,0-0.4-0.1c-0.1-0.1-0.1-0.2-0.2-0.2c-0.1-0.1-0.1-0.4-0.4-0.4
		c-0.3,0.1-0.1,0.3-0.1,0.5c0,0.1,0.1,0.3-0.2,0.3c-0.2,0-0.2-0.2-0.2-0.3c0-0.4,0-0.9,0-1.3c0-0.2,0.1-0.3,0.3-0.3
		c0.3,0,0.5,0,0.8,0.1c0.2,0.1,0.3,0.2,0.4,0.4c0,0.2,0,0.4-0.2,0.5c-0.3,0.1-0.2,0.3-0.1,0.5C98.5,60,98.6,60.1,98.6,60.2z
		 M97.9,59.2c0.2,0,0.5,0,0.4-0.3c0-0.3-0.3-0.3-0.5-0.3c-0.3,0-0.2,0.1-0.3,0.3C97.5,59.2,97.7,59.2,97.9,59.2z"/>
</svg>
