<?xml version="1.0" encoding="utf-8"?>
<!-- Generator: Adobe Illustrator 18.1.0, SVG Export Plug-In . SVG Version: 6.00 Build 0)  -->
<!DOCTYPE svg PUBLIC "-//W3C//DTD SVG 1.1//EN" "http://www.w3.org/Graphics/SVG/1.1/DTD/svg11.dtd">
<svg version="1.1" id="Layer_1" xmlns="http://www.w3.org/2000/svg" xmlns:xlink="http://www.w3.org/1999/xlink" x="0px" y="0px"
	 width="277px" height="123.2px" viewBox="0 0 277 123.2" enable-background="new 0 0 277 123.2" xml:space="preserve">
<path fill="#8C1414" d="M153.6,3.5c5.6-4.8,14.4-4.4,20.3-0.3c-1.4,2.1-2.9,4.1-4.4,6.2c-1.4-1.8-2.4-4.4-4.9-4.9
	c-2.5-0.9-5.9,0.2-6.7,3c-1.2,4.4-0.4,9.1-0.6,13.6c2.7,0,5.4,0,8.1,0c0,1.5,0,3.1,0,4.7c-2.7,0-5.4,0-8,0c0,7.6,0,15.1,0,22.7
	c0,2,0,4.2,1.1,6c2,1.2,5.2,0.5,6.2,3.2c-6.8-0.3-13.7-0.8-20.5,0.1c-0.1-0.4-0.2-1.1-0.3-1.4c2-0.8,5-1.5,5-4.2
	c0.7-8.7,0.1-17.5,0.4-26.2c-1.8-0.1-3.7-0.1-5.5-0.2c1-2.3,3.4-3.2,5.4-4.3C149.1,15.1,148.7,8,153.6,3.5"/>
<path fill="#8C1414" d="M7.3,7.2c6.9-3.7,14.9-2.1,22.2-1.3c0,3.6,0,7.2,0,10.8c-0.4,0-1.2,0.1-1.6,0.1c-0.7-2.1-0.9-4.8-3.1-5.9
	c-3.6-1.8-8-1.7-11.9-0.8c-5.2,1.5-5.7,9.3-1.7,12.3c4.4,3.7,9.7,6.2,14.1,9.9c7.4,5.6,6.6,19.1-1.9,23.2C16.2,59,7.6,58.1,0.1,56
	c0-3.8-0.2-7.6,0-11.4C2.9,46,2.2,50,5,51.5c3.8,2.1,8.5,2.1,12.6,1c5.6-1.8,6.1-10,2.1-13.6C15,34.6,8.8,32,4.3,27.3
	C-1.1,21.7,0.2,11,7.3,7.2"/>
<path fill="#8C1414" d="M40,19.9c2.4-2.4,3.6-5.7,6.5-7.7c0.1,2.9,0.1,5.9,0.1,8.8c4.1,0,8.2,0,12.4,0c0,1.6,0,3.1,0,4.7
	c-4.1,0-8.2,0-12.4,0c0.1,6.9,0,13.8,0.1,20.6c0.1,2.3,0.3,5,2.4,6.4c3.3,2.1,7,0,10.6,0.1c-3.3,5.2-10.6,6.4-16,4.3
	c-3.5-1.4-5.2-5.2-5.2-8.8c-0.3-7.5,0-15,0.1-22.5c-1.9-0.1-3.8-0.2-5.6-0.4C35,23.5,37.8,22.1,40,19.9"/>
<path fill="#8C1414" d="M111.6,23.4c4.4-2.6,9.6-4.2,14.7-2.8c4.2,0.8,7.5,4.5,8,8.8c1.1,7.7-0.2,15.6,0.8,23.4
	c0.3,2.6,3.6,2.7,5.4,4c-3.2,1.3-6.7,0.3-10.1,0.4c-3.3-0.1-6.7,0.9-9.9-0.5c1.7-0.8,3.4-1.5,5.1-2.3c1.2-6.3,1.1-12.7,0.9-19.1
	c-0.3-3.1-0.4-7-3.3-8.9c-3.5-1.9-7.8-0.9-11.4,0.2c0,7.6-0.1,15.2,0,22.8c0.1,1.5,0,3.2,0.8,4.6c1.5,1.3,3.3,2.2,4.9,3.4
	c-6.7-0.1-13.3-0.5-20,0c2-1.9,5.9-2.6,5.8-6c0.5-8,0.6-16.1,0-24.1c0-2.5-2.9-2.5-4.6-3c0-0.4-0.1-1.2-0.1-1.7
	c4.4-0.2,8.8-0.8,13-2.3C111.5,21.1,111.6,22.6,111.6,23.4"/>
<path fill="#8C1414" d="M220.8,23.6c4.3-3.4,10.8-4.5,15.3-0.7c-1.2,2.4-2.5,4.7-3.8,7.1c-1.5-1.1-2.8-2.3-4.4-3.1
	c-2.2-1-4.6-0.2-6.8,0.1c0.3,9.2-0.8,18.4,0.8,27.5c1.9,0.4,3.9,0.9,5.9,1.2c0,0.5-0.1,1.4-0.1,1.9c-6.6-0.6-13.2-0.8-19.7,0
	c-0.1-0.4-0.3-1.1-0.4-1.5c2.2-0.8,5.3-1.7,5.1-4.7c0.3-8,0.4-16.1,0-24.2c-0.1-2.6-3.6-2.3-5.2-3.2c0.3-0.3,0.8-1,1-1.3
	c4.2-0.8,8.4-1,12.5-2.3C220.9,21.2,220.9,22.8,220.8,23.6"/>
<path fill="#8C1414" d="M179.8,21c7.9-2.6,18.3-0.5,22.3,7.5c4.4,9.3,2.3,23-7.7,27.8c-7.4,3.2-17.6,2.4-22.8-4.4
	C164.6,42.3,167.5,25,179.8,21 M182.8,25c-4.6,2.1-5.8,7.7-6,12.3c-0.2,4.8,0.2,10.2,3.5,14.1c3.1,3.7,9.8,3.4,12.5-0.7
	c2.5-3.6,2.9-8.1,2.9-12.3c-0.2-4-0.9-8.5-3.7-11.6C189.7,24.1,185.8,23.9,182.8,25"/>
<path fill="#8C1414" d="M259.1,2.2c4.4-0.3,8.8-1,13.1-2c-0.1,16.7-0.2,33.5,0,50.3c-0.4,3,2.6,3.7,4.8,4.3
	c-0.1,0.4-0.2,1.2-0.3,1.6c-4.3,0.2-8.5,0.8-12.7,1.8c0-0.8,0.1-2.4,0.1-3.3c-3.6,2.1-7.6,3.7-11.9,3.2c-6.5-0.2-12.4-5.1-14-11.5
	c-1.8-7.5-0.6-16.6,5.6-21.9c5.4-4.9,13.3-5.1,20.1-3.9c-0.1-4.8,0.2-9.6-0.3-14.4c-0.1-2.2-3-2-4.5-2.8L259.1,2.2 M250.9,26.1
	c-3.6,2.5-4.4,7.2-4.8,11.2c-0.3,4.8,0.6,10.4,4.7,13.5c3.8,2.7,8.8,2.4,13,0.9c0-8.4,0-16.7,0-25.1C260,24.4,254.9,23.6,250.9,26.1
	"/>
<path fill="#8C1414" d="M67.5,24.4c3.8-4.5,10.4-5.2,15.8-3.6c3.5,1,6.1,4.2,6.5,7.8c0.8,7.3-0.3,14.6,0.2,21.8
	c0.2,3,3.4,2.2,5.4,1.9C93.8,58,85.2,60,81.9,54.6C77.8,58,71.8,59,67,56.6c-6.3-3.4-6.1-14.1,0.3-17.3c4.6-2.3,9.7-3.5,14.6-5.1
	c-0.2-2.3,0-4.9-1.5-6.9c-2.6-3.1-7.8-3.3-10.7-0.6c-1.2,0.8-2.1,2.3-3.7,2.4C64.9,27.3,66.6,25.7,67.5,24.4 M73.2,42.2
	c-3.3,2.2-3.6,8.3,0.3,10.1c2.7,1.2,5.6-0.1,8.3-0.8c0.1-4.3,0-8.5,0-12.8C78.8,39.7,75.8,40.5,73.2,42.2"/>
<path fill="#8C1414" d="M93.7,76.8c1.4-0.5,3.5-0.8,4.4,0.7c1.8,1.9-0.2,5.3-2.8,4.8C92.4,82.5,91.5,78.3,93.7,76.8"/>
<path fill="#8C1414" d="M192.8,76.8c1.9-1.1,5.2-0.1,4.9,2.5c0.2,2.3-2.4,3.5-4.3,2.8C191.1,81.7,190.9,77.9,192.8,76.8"/>
<path fill="#8C1414" d="M28.6,77.5c4.3,0,8.7,0,13,0.1c-1.2,1.3-3.9,1.7-3.7,3.9c-0.1,7-0.5,14.1,0.3,21.1c0.9,5.3,7.7,5.9,11.8,4.2
	c3.3-1.4,3.7-5.4,3.7-8.5c-0.1-6,0.3-12.1-0.2-18.1c-1.1-1-2.3-1.7-3.5-2.6c4-0.1,8-0.1,12,0c-1.2,0.9-2.5,1.7-3.6,2.8
	c-0.8,7,0.2,14.1-0.5,21.1c-0.4,3.3-2.3,6.6-5.4,7.9c-4.1,1.7-8.7,1.6-12.9,0.6c-3.5-0.8-6.2-3.9-6.7-7.4c-0.7-7,0.2-14.2-0.5-21.2
	C32.2,79.2,29.8,78.7,28.6,77.5"/>
<path fill="#8C1414" d="M202.3,89.7c3.6-2.2,6.3-5.3,8.6-8.9c0.2,2,0.2,4,0.3,6c2.6,0,5.2,0,7.9,0c0,1,0,2,0,3c-2.7,0-5.3,0-8,0
	c0.3,5.3-0.7,10.8,0.6,15.9c1.4,3.1,5.2,1.4,7.9,1.3c-3,4.5-11.8,5.1-13.4-0.8c-0.8-5.4-0.2-10.9-0.3-16.3
	C205,89.9,203.2,89.8,202.3,89.7"/>
<path fill="#8C1414" d="M70.2,88.2c2.6-1.2,5.3-2.2,8.2-1.7c3.2,0,6,2.8,6.3,6c0.5,5.1,0.1,10.1,0.4,15.2c1.2,0.8,2.4,1.6,3.6,2.4
	c-4.3,0-8.5-0.1-12.8,0.1c1.1-0.9,2.4-1.7,3.4-2.7c0.6-4.9,0.8-10-0.1-14.9c-1.2-3.9-5.9-2.9-9-2.2c0.1,5.9-0.4,11.8,0.5,17.7
	c1.2,0.6,2.3,1.2,3.5,1.8c-4.3,0.2-8.7,0.1-13,0.2c1.3-1.2,3.7-1.9,3.7-3.9c0.3-5.4,0.1-10.8,0-16.2c-1.4-0.6-2.7-1.2-4.1-1.8
	c3.1-0.5,6.3-0.9,9.4-1.7C70.2,86.9,70.2,87.8,70.2,88.2"/>
<path fill="#8C1414" d="M157.7,88.2c3-1.8,6.8-2.3,9.9-0.3c-0.8,1.5-1.5,3-2.3,4.5c-1.6-0.9-3.1-1.7-4.8-2.5c-0.7,0.2-2,0.8-2.6,1
	c0.1,5.6-0.1,11.2,0.2,16.8c1.7,0.6,3.3,1.2,5,1.9c-4.7,0.6-9.5,0.2-14.3,0.3c1.2-0.9,2.5-1.6,3.6-2.6c0.6-5.7,0.5-11.4,0.1-17.1
	c-1.2-0.8-2.4-1.5-3.7-2.2c3-0.5,6-1,9-1.6C157.8,86.9,157.7,87.8,157.7,88.2"/>
<path fill="#8C1414" d="M170.9,95.8c-1.9-3.3-0.1-8,3.6-9c3.2-0.7,6.6-0.2,9.8,0c-0.1,2.3-0.1,4.7-0.4,7c-1.3-2-2.5-5.3-5.6-4.9
	c-2.4-0.4-4.6,2.1-3.2,4.4c2.3,2.2,5.5,3.3,7.9,5.4c3.4,2.7,2.5,9-1.5,10.6c-3.7,1.8-7.9,0.9-11.7,0.2c0-2.5,0-5,0.3-7.4
	c1.4,2.1,2,5.7,5.2,5.6c2.7,0.7,6-1.1,5-4.2C177.8,100.1,173,99.4,170.9,95.8"/>
<path fill="#8C1414" d="M188.1,88.1c3.2-0.7,6.4-1.1,9.5-1.7c-0.1,6.7-0.4,13.3,0,20c-0.2,2.2,2.5,2.4,3.8,3.5
	c-4.4,0.2-8.9,0.1-13.3,0.2c1.3-1.2,3.8-1.7,3.9-3.8c0.4-5.4,0.2-10.9,0-16.4C190.7,89.3,189.4,88.7,188.1,88.1"/>
<path fill="#8C1414" d="M89.6,88.5c0.2-0.2,0.6-0.6,0.8-0.8c2.8-0.3,5.5-0.7,8.2-1.2c-0.1,6.7-0.3,13.3,0,20
	c-0.2,2.2,2.6,2.3,3.8,3.5c-4.5,0.2-8.9,0.2-13.4,0c1.3-0.7,2.6-1.4,3.8-2.2c0.9-5.9,0.3-11.9,0.3-17.9
	C91.9,89.4,90.7,88.9,89.6,88.5"/>
<path fill="#8C1414" d="M101.6,87c4-0.1,8.1,0,12.1-0.1c-0.7,0.6-2.2,1.9-3,2.6c1,4.7,3.3,9,4.7,13.6c1.8-4.5,3.8-9.1,5.3-13.7
	c-1.2-0.8-2.3-1.6-3.5-2.3c3.5-0.1,7-0.1,10.5-0.1c-1.5,1.4-3.3,2.7-4.1,4.8c-2.5,5.5-4.8,11.1-7.4,16.6c-0.5,1.4-1.8,2.1-3,2.8
	c-3-7.3-5.7-14.7-8.8-21.9C103.6,88.4,102.6,87.7,101.6,87"/>
<path fill="#8C1414" d="M221.1,86.9c4,0.1,8.1,0,12.1,0.1c-1.1,0.8-2.3,1.6-3.4,2.4c1.5,5.1,3.6,10,5.4,15c1.5-5,3.3-9.9,4.8-14.9
	c-0.8-0.6-2.5-1.9-3.3-2.5c3.5-0.1,7-0.1,10.5,0c-1,0.8-1.9,1.6-2.9,2.4c-3.7,9.1-6.9,18.4-10.5,27.5c-1.1,3.1-3.7,6.1-7.2,6.3
	c-2.6,0.5-5.1-0.6-7.4-1.7c0.9-1.3,1.9-2.5,2.8-3.8c0.5,0.6,1.6,1.8,2.2,2.4c1.8-0.2,4,0.1,5-1.7c1.4-2.3,2.9-4.9,3-7.7
	c-2.1-6.3-4.8-12.5-7.2-18.8C224.4,89.7,222.6,88.3,221.1,86.9"/>
<path fill="#8C1414" d="M129.2,91.3c2.7-5.3,10.6-6.5,15.1-2.9c2.6,2.2,2.7,5.9,2.9,9c-5,0-10,0-15,0.1c0.6,3,0.8,6.5,3.6,8.3
	c3.5,2.2,7.7,0.5,11.4,0.1c-4.1,6-14.5,6.2-18.4-0.1C126.3,101.4,126.8,95.7,129.2,91.3 M132.1,94.8c3.3,0.1,6.6,0.1,9.9,0
	c-0.6-2.4-1.4-6-4.7-5.8C133.9,88.5,132.8,92.2,132.1,94.8"/>
</svg>
