<?xml version="1.0" encoding="utf-8"?>
<!-- Generator: Adobe Illustrator 18.0.0, SVG Export Plug-In . SVG Version: 6.00 Build 0)  -->
<!DOCTYPE svg PUBLIC "-//W3C//DTD SVG 1.1//EN" "http://www.w3.org/Graphics/SVG/1.1/DTD/svg11.dtd">
<svg version="1.1" xmlns="http://www.w3.org/2000/svg" xmlns:xlink="http://www.w3.org/1999/xlink" x="0px" y="0px"
	 viewBox="0 0 110.1 38.8" enable-background="new 0 0 110.1 38.8" xml:space="preserve">
	<path fill="#CF2E44" d="M9,12.6c0-0.7,0-1.3,0-1.9c0-0.2,0-0.4,0.3-0.4c1.5-0.2,3.1-0.4,4.6-0.5c0.5,0,0.7,0.2,0.7,0.6
		c0.4,2.6,0.5,5.2,0.7,7.8c0.3,3.7,0.4,7.5,0.8,11.2c0.2,1.6,0.1,3.2-0.3,4.7c-0.3,1.1-0.9,1.9-1.8,2.6c-2.6,1.7-5.4,2.4-8.4,2.1
		c-0.8-0.1-1.6,0-2.5-0.2c-0.5-0.1-0.8-0.3-1-0.8c-0.4-0.9-0.5-1.9-0.4-2.9c0.1-1,0.6-1.4,1.7-1.3c0.9,0.1,1.9,0.3,2.8,0.5
		c2.8,0.6,4.7-1.2,4.4-4c-0.1-0.5-0.1-0.9-0.1-1.4c-0.3,0.2-0.3,0.5-0.5,0.7c-1.6,2.9-4.8,3.4-7.2,1.1c-1.4-1.3-2-3-2.4-4.8
		c-0.6-3.1-0.8-6.2-0.4-9.4c0.2-1.6,0.7-3,1.6-4.3c1.2-1.7,2.9-2.1,4.8-1.3C7.5,10.9,8,11.4,9,12.6z M4.6,19.5c0,1.3,0.2,2.6,0.4,4
		c0.2,0.9,0.5,1.8,1.2,2.5c1.4,1.5,3.1,1.2,4-0.6c0.2-0.3,0.3-0.7,0.4-1c0.5-2.6,0.2-5-0.8-7.4c-0.2-0.6-0.6-1-1-1.4
		c-1-1-2.3-0.8-3.2,0.3C4.8,16.9,4.6,18.1,4.6,19.5z"/>
	<path fill="#CF2E44" d="M74,12.3c-0.1,4.1-0.5,9.5-0.9,14.9c-0.1,1.2-0.2,1.3-1.4,1.3c-1,0-2-0.2-3.1-0.4
		c-0.4-0.1-0.5-0.2-0.5-0.6c0.2-2.5,0.3-4.9,0.5-7.4c0.1-1.1,0.1-2.1,0.2-3.2c0-0.4-0.1-0.5-0.5-0.5c-1,0-2.1-0.1-3.1-0.1
		c-0.5,0-0.6,0.2-0.6,0.6c-0.1,2.6-0.1,5.3-0.2,7.9c0,0.8-0.1,1.7-0.2,2.5c-0.1,0.6-0.4,0.8-1,0.9c-1.3,0.1-2.5-0.2-3.7-0.5
		c-0.4-0.1-0.3-0.4-0.3-0.6c0.1-2.1,0.2-4.3,0.3-6.4c0.2-4.5,0.5-8.9,0.8-13.4c0.1-2.2,0.3-4.3,0.4-6.5c0-0.5,0.2-0.7,0.7-0.6
		c1.2,0.1,2.5,0.2,3.7,0.2c0.4,0,0.5,0.1,0.4,0.5c-0.3,3-0.5,6-0.7,8.9c0,0.5,0,1.1,0,1.6c0,0.3,0.1,0.5,0.4,0.5
		c1.1,0.1,2.1,0.2,3.2,0.2c0.4,0,0.6-0.1,0.6-0.6c0.2-3.3,0.4-6.6,0.5-9.9c0-1,0-1,1-0.9c1.1,0.1,2.3,0.2,3.4,0.2
		c0.4,0,0.5,0.1,0.5,0.5C74.3,4.5,74.1,7.8,74,12.3z"/>
	<path fill="#CF2E44" d="M97.4,12.5c0.5-0.6,1-1.1,1.5-1.5c1.7-1.4,4.2-1,5.4,0.8c0.9,1.5,1.2,3.2,1.3,5c0.1,3.5-0.5,6.9-1.5,10.2
		c-0.4,1.3-1.1,2.5-2.1,3.4c-1.3,1.1-3.3,1.3-4.8,0.4c-0.6-0.3-0.9-0.8-1-1.4c-0.1-0.4-0.3-0.7-0.6-1c0,0.4,0,0.9,0,1.3
		c0,0.5-0.3,0.9-0.8,1c-1.1,0.3-2.3,0.3-3.4-0.1c-0.9-0.3-1.2-0.6-1.2-1.7c0-1.5,0.1-3,0.3-4.5c0.8-7,2-13.9,3-20.9
		c0-0.4,0.1-0.6,0.6-0.5c1.3,0.1,2.6,0.2,3.8,0.4c0.5,0.1,0.7,0.3,0.6,0.8c-0.3,2.6-0.7,5.2-1,7.8C97.4,12.1,97.4,12.2,97.4,12.5z
		 M101.5,19.8c0-0.4,0-0.8,0-1.3c-0.1-1-0.3-1.9-0.9-2.7c-0.7-0.9-1.4-1.1-2.4-0.6c-1,0.5-1.6,1.3-1.9,2.4
		c-0.7,2.6-0.5,5.2,0.4,7.7c0.2,0.5,0.5,0.9,0.9,1.3c0.3,0.3,0.7,0.4,1.1,0.2c0.9-0.5,1.5-1.2,1.9-2.1
		C101.3,23.1,101.5,21.5,101.5,19.8z"/>
	<path fill="#CF2E44" d="M48.6,25.9c0,0.2,0,0.3,0,0.5c0.1,1.2-0.3,1.7-1.5,1.8c-0.9,0.1-1.8,0-2.6-0.2c-0.5-0.1-0.7-0.4-0.8-1
		c0-2.4-0.1-4.8-0.2-7.3c-0.1-5.2-0.3-10.4-0.5-15.5c0-0.6,0-1.2,0-1.8c0-0.3,0.1-0.5,0.4-0.5c1.3-0.2,2.6-0.3,3.9-0.2
		c0.5,0,0.4,0.4,0.5,0.7c0,1.7,0.1,3.4,0.1,5.1c0,0.9,0,1.8,0.1,2.8c0.4-0.4,0.6-0.8,0.9-1.2c1.7-2,4.3-1.8,5.8,0.3
		c0.8,1.2,1.2,2.5,1.4,3.9c0.5,3.8,0.6,7.6-0.3,11.4c-0.6,2.3-2.7,3.7-4.9,3.1c-0.8-0.2-1.4-0.7-1.9-1.3C49,26.2,48.8,26,48.6,25.9
		c0-0.1,0.1-0.2,0-0.2C48.5,25.7,48.5,25.8,48.6,25.9z M52.9,17.5c0-0.4,0-0.7,0-1.1c-0.1-1.4-0.4-2.7-1.4-3.8c-1-1.1-2.3-1-3,0.3
		c-0.4,0.7-0.7,1.5-0.8,2.3c-0.2,2.1,0,4.3,0.2,6.4c0.1,1.2,1,1.9,2.2,2c1.2,0.1,1.7-0.3,2.2-1.6C52.8,20.6,52.9,19,52.9,17.5z"/>
	<path fill="#CF2E44" d="M36.1,26.1c-0.4,0.5-0.6,1-1,1.4c-1.6,1.7-4,1.6-5.4-0.2c-0.7-0.9-1.1-1.9-1.2-3c-0.3-5.1-0.6-10.3-1-15.4
		C27.5,8,27.5,8,28.4,8c1-0.1,2-0.1,3-0.2c0.5,0,0.7,0.1,0.7,0.7c0.2,4.4,0.5,8.8,0.8,13.2c0.1,1,0.5,1.8,1,2.6
		c0.3,0.4,0.6,0.4,1,0.2c0.9-0.6,1.1-1.5,1-2.6c-0.4-4.4-0.8-8.9-0.9-13.4c0-0.6,0.2-0.8,0.8-0.8c1.1,0,2.3-0.1,3.4-0.2
		c0.3,0,0.4,0.1,0.5,0.4c0.3,4.2,0.6,8.5,0.9,12.7c0.1,2.2,0.2,4.5,0.3,6.7c0,0.5-0.1,0.7-0.6,0.8c-1,0.2-2,0.4-3,0.4
		c-0.8,0-0.9-0.1-1-0.9C36.2,27.1,36.1,26.7,36.1,26.1z"/>
	<path fill="#CF2E44" d="M83.1,26.6c-0.6,0.3-1,0.8-1.5,1.1c-2,1.3-4.2,0.7-5.2-1.5c-0.6-1.3-0.6-2.6-0.4-4
		c0.5-4.7,1.1-9.5,1.6-14.2c0.1-1.1,0.2-1.1,1.3-1c1,0.1,1.9,0.2,2.9,0.4c0.4,0.1,0.5,0.2,0.5,0.6c-0.5,4.5-1.1,8.9-1.6,13.4
		c-0.1,0.7-0.1,1.3,0.1,2c0.1,0.5,0.3,0.9,0.8,1c0.6,0.1,1.1-0.1,1.5-0.6c0.5-0.6,0.6-1.3,0.7-2c0.5-4.5,1-8.9,1.5-13.4
		c0-0.4,0.1-0.6,0.6-0.5c1.2,0.2,2.3,0.3,3.5,0.4c0.3,0,0.5,0.1,0.4,0.5c-1.1,6.4-1.6,13-2.2,19.5c0,0.4-0.2,0.5-0.5,0.5
		c-1.2-0.2-2.4-0.3-3.6-0.4c-0.4,0-0.5-0.2-0.4-0.6C83.1,27.4,83.1,27,83.1,26.6z M83.1,26.4L83.1,26.4L83.1,26.4L83.1,26.4z"/>
	<path fill="#CF2E44" d="M22,11c0.3-0.6,0.6-1.1,0.9-1.6c0.2-0.3,0.4-0.5,0.7-0.6c1.3-0.7,1.6-0.5,1.7,0.9c0.1,1.2,0.1,2.4,0.1,3.5
		c0,0.4-0.1,0.6-0.6,0.7c-1.2,0.2-2,0.9-2.3,2.1c-0.2,0.8-0.2,1.7-0.2,2.6c0.2,3.4,0.3,6.8,0.5,10.2c0,0.4-0.1,0.5-0.5,0.5
		c-1.1,0-2.3,0.1-3.4,0.2c-0.5,0-0.7-0.1-0.8-0.7c-0.2-3.6-0.4-7.1-0.5-10.7c-0.1-2.9-0.2-5.8-0.4-8.6c0-0.5,0.1-0.6,0.6-0.6
		c1.2,0,2.3-0.1,3.5-0.1c0.4,0,0.5,0.1,0.5,0.5C21.8,9.8,21.8,10.4,22,11z"/>
	<path fill="#D1394E" d="M108.3,7.7c1,0,1.8,0.7,1.8,1.7c0,1-0.7,1.8-1.7,1.8c-1,0-1.8-0.8-1.9-1.8C106.5,8.5,107.3,7.7,108.3,7.7z
		 M107.6,10.4L107.6,10.4c-0.2,0.3,0.1,0.3,0.3,0.3c0.5,0.2,1.2,0,1.5-0.4c0.4-0.5,0.3-1.3-0.1-1.7c-0.4-0.5-1-0.6-1.5-0.3
		c-0.5,0.3-0.9,0.9-0.7,1.5C107.1,10,107.1,10.4,107.6,10.4z"/>
	<polygon fill="#FEFEFE" points="83.1,26.4 83.1,26.4 83.1,26.4 		"/>
	<path fill="#D34055" d="M107.6,10.4c0-0.4,0-0.8,0-1.2c0-0.2-0.1-0.5,0.2-0.6c0.4-0.1,0.8-0.1,1.1,0.1c0.2,0.2,0.2,0.4,0,0.7
		c-0.2,0.2,0.1,0.4,0.1,0.6c0,0.1,0.1,0.3,0,0.4c-0.2,0.1-0.3,0-0.4-0.2c-0.1-0.2-0.1-0.4-0.4-0.4c-0.3,0-0.2,0.3-0.2,0.5
		C108.1,10.5,107.8,10.3,107.6,10.4L107.6,10.4z M108,9.4c0,0,0.4,0,0.5,0s0.3-0.1,0.3-0.3c0-0.1-0.1-0.3-0.3-0.3s-0.5,0-0.5,0V9.4
		z"/>
</svg>
