<?xml version="1.0" encoding="utf-8"?>
<!-- Generator: Adobe Illustrator 18.0.0, SVG Export Plug-In . SVG Version: 6.00 Build 0)  -->
<!DOCTYPE svg PUBLIC "-//W3C//DTD SVG 1.1//EN" "http://www.w3.org/Graphics/SVG/1.1/DTD/svg11.dtd">
<svg version="1.1" xmlns="http://www.w3.org/2000/svg" xmlns:xlink="http://www.w3.org/1999/xlink" x="0px" y="0px"
	 viewBox="0 0 20 20" style="enable-background:new 0 0 20 20;" xml:space="preserve">
	<circle fill="#ccc" cx="10" cy="10" r="10"/>
	<path fill="#fff" d="M15.8,6.4c-0.4,0.2-0.9,0.3-1.4,0.4C15,6.4,15.3,6,15.5,5.4C15,5.7,14.5,5.9,14,6
		c-0.4-0.5-1.1-0.8-1.8-0.8c-1.3,0-2.4,1.1-2.4,2.4c0,0.2,0,0.4,0.1,0.5c-2-0.1-3.8-1.1-4.9-2.5C4.7,6,4.6,6.4,4.6,6.9
		c0,0.8,0.6,1.6,1.3,2C5.5,8.9,5,8.8,5,8.6c0,0,0,0,0,0c0,1.2,0.6,2.1,1.7,2.4C6.5,11,6.2,11,6,11c-0.2,0-0.4,0-0.5,0
		c0.3,1,1.2,1.6,2.2,1.7c-0.8,0.6-1.9,1-3,1c-0.2,0-0.4,0-0.6,0c1.1,0.7,2.3,1.1,3.7,1.1c4.4,0,6.8-3.7,6.8-6.8c0-0.1,0-0.2,0-0.3
		C15.1,7.3,15.5,6.8,15.8,6.4z"/>
</svg>
