<?xml version="1.0" encoding="utf-8"?>
<!-- Generator: Adobe Illustrator 18.0.0, SVG Export Plug-In . SVG Version: 6.00 Build 0)  -->
<!DOCTYPE svg PUBLIC "-//W3C//DTD SVG 1.1//EN" "http://www.w3.org/Graphics/SVG/1.1/DTD/svg11.dtd">
<svg version="1.1" xmlns="http://www.w3.org/2000/svg" xmlns:xlink="http://www.w3.org/1999/xlink" x="0px" y="0px"
	 viewBox="0 0 20 20" style="enable-background:new 0 0 20 20;" xml:space="preserve">
	<circle fill="#ccc" cx="10" cy="10" r="10"/>
	<polygon fill="#fff" points="15,6 14,6 14,5 13,5 13,6 12,6 12,7 13,7 13,8 14,8 14,7 15,7 			"/>
	<path fill="#fff" d="M10.6,10.8c-0.3-0.2-0.9-0.7-0.9-1c0-0.4,0.1-0.5,0.6-1c0.6-0.4,0.9-1.2,0.9-1.9c0-0.8-0.3-1-0.9-2h0.8h0.7
		c0,0-2.4,0-3.2,0c-1.6,0-3,1-3,2.3c0,1.3,0.9,2.3,2.4,2.3c0.1,0,0.2-0.1,0.3-0.1c-0.1,0.2-0.2,0.4-0.2,0.6c0,0.4,0.2,0.6,0.5,0.8
		c-0.2,0-0.4,0-0.6,0c-1.9,0-3.2,1.3-3.2,2.5c0,1.2,1.6,2,3.4,2c2.1,0,3.4-1.2,3.4-2.4C11.9,12,11.7,11.5,10.6,10.8z M8.8,9
		C7.9,9,7.1,8.2,7,7c-0.1-1.1,0.4-2,1.3-2c0.9,0,1.6,1,1.7,2.1C10.1,8.3,9.6,9,8.8,9z M8.4,14.9c-1.3,0-2.2-0.8-2.2-1.8
		c0-1,1.1-1.8,2.4-1.8c0.3,0,0.6,0.1,0.8,0.1c0.7,0.5,1.3,0.8,1.4,1.3c0,0.1,0,0.2,0,0.3C10.9,14.1,10.3,14.9,8.4,14.9z"/>
</svg>
