<svg xmlns="http://www.w3.org/2000/svg" viewBox="0 0 140 24" enable-background="new 0 0 140 24"><g><path fill="#7ABC43" d="M.7 17.8c-.4-.3-.7-.7-.7-1.3 0-.9.7-1.5 1.5-1.5.3 0 .6.1.8.2 1.3.8 2.6 1.2 3.7 1.2s1.6-.4 1.6-1v-.1c0-.8-1.3-1.1-2.8-1.6-1.9-.6-4-1.4-4-4.1 0-2.8 2.2-4.3 5-4.3 1.4 0 2.9.4 4.2 1 .6.3.9.8.9 1.4 0 .9-.7 1.5-1.5 1.5-.4.1-.6.1-.9-.1-1.1-.5-2.1-.8-2.9-.8-.9 0-1.4.4-1.4.9 0 .8 1.3 1.1 2.8 1.6 1.9.6 4.1 1.5 4.1 4v.1c0 3-2.3 4.4-5.2 4.4-1.7 0-3.5-.5-5.2-1.5zM12.7 7.3c0-1.1.9-1.9 1.9-1.9 1.1 0 1.9.9 1.9 1.9v.2c.9-1.3 2.2-2.2 4.2-2.2 3.2 0 6.2 2.5 6.2 7v.1c0 4.5-3 7-6.2 7-2 0-3.3-.9-4.2-2v4c0 1.1-.9 1.9-1.9 1.9-1.1 0-1.9-.9-1.9-1.9v-14.1zm10.4 5c0-2.3-1.5-3.8-3.3-3.8-1.8 0-3.3 1.5-3.3 3.7v.1c0 2.3 1.5 3.7 3.3 3.7 1.8.1 3.3-1.4 3.3-3.7zM38 12.4c0-3.9 3.1-7.1 7.4-7.1 4.2 0 7.3 3.1 7.3 7v.1c0 3.9-3.1 7.1-7.4 7.1-4.2-.1-7.3-3.2-7.3-7.1zm10.8 0c0-2-1.4-3.8-3.6-3.8s-3.5 1.7-3.5 3.7v.1c0 2 1.4 3.7 3.6 3.7s3.5-1.7 3.5-3.7zM66.8 17.3c0 1.1-.9 1.9-1.9 1.9-1.1 0-1.9-.9-1.9-1.9v-.2c-.9 1.1-2 2.2-4 2.2-2.9 0-4.6-1.9-4.6-5v-7c0-1.1.9-1.9 1.9-1.9 1.1 0 1.9.9 1.9 1.9v5.8c0 1.8.9 2.8 2.3 2.8 1.5 0 2.4-.9 2.4-2.8v-5.8c0-1.1.9-1.9 1.9-1.9 1.1 0 1.9.9 1.9 1.9v10zM68.7 15.2v-11.4c0-1.1.9-1.9 1.9-1.9 1.1 0 1.9.9 1.9 1.9v1.7h1.7c.9 0 1.6.7 1.6 1.6 0 .9-.7 1.6-1.6 1.6h-1.7v5.8c0 .9.4 1.3 1.2 1.3h.5c.9 0 1.6.7 1.6 1.6 0 .7-.5 1.2-1 1.4-.7.3-1.4.4-2.2.4-2.3.1-3.9-.8-3.9-4z"/><path fill="#4D4D4D" d="M83.9 19.3c-1.9 0-3.9-.7-5.4-1.9l1-1.4c1.4 1.1 3 1.7 4.5 1.7 1.6 0 2.7-.8 2.7-2.1s-1.5-1.8-3.3-2.3c-2-.6-4.3-1.3-4.3-3.7v-.1c0-2.3 1.9-3.7 4.4-3.7 1.6 0 3.4.6 4.7 1.4l-.9 1.5c-1.2-.8-2.6-1.3-3.9-1.3-1.4 0-2.4.8-2.4 1.9 0 1.2 1.6 1.7 3.4 2.3 2 .6 4.2 1.4 4.2 3.7-.1 2.6-2.1 4-4.7 4zM96.8 19.4c-3.9 0-6.8-3.1-6.8-6.8 0-3.7 2.9-6.9 6.8-6.9s6.8 3.1 6.8 6.8c.1 3.7-2.8 6.9-6.8 6.9zm0-12c-2.8 0-4.8 2.3-4.8 5.1s2.1 5.1 4.8 5.1c2.8 0 4.8-2.3 4.8-5.1.1-2.8-2-5.1-4.8-5.1zM111.8 19.4c-3.8 0-6.7-3.1-6.7-6.8 0-3.7 2.9-6.9 6.7-6.9 2.5 0 4 1 5.2 2.3l-1.3 1.4c-1-1.1-2.2-2-4-2-2.7 0-4.7 2.3-4.7 5.1 0 2.9 2.1 5.1 4.8 5.1 1.7 0 3-.8 4-1.9l1.2 1.2c-1.1 1.4-2.7 2.5-5.2 2.5zM119.2 3.1v-2.1h2.2v2.1h-2.2zm.1 16v-13.1h1.9v13.1h-1.9zM125.3 8.5l-.6-1.6c1.4-.7 2.9-1.1 4.8-1.1 3.6 0 5.6 1.8 5.6 5.3v8h-1.9v-2c-.9 1.2-2.4 2.3-4.7 2.3-2.4 0-4.9-1.4-4.9-4.1 0-2.8 2.3-4.2 5.6-4.2 1.7 0 2.9.2 4 .6v-.5c0-2.4-1.4-3.6-3.9-3.6-1.6-.1-2.8.3-4 .9zm.2 6.7c0 1.7 1.5 2.6 3.3 2.6 2.4 0 4.4-1.5 4.4-3.5v-1.3c-1-.3-2.3-.6-3.8-.6-2.5 0-3.9 1.1-3.9 2.8zM138.1 19.1v-18.5h1.9v18.5h-1.9z"/><path fill="#7ABC43" d="M39.3 4.2s-1.7.7-3.1.7c-1.4 0-2.1.7-2.1.7-.6.4-1.1 1.2-1.5 2v-.3c0-1.1-.9-1.9-1.9-1.9s-1.9.9-1.9 1.9v10c0 1.1.9 1.9 1.9 1.9s1.9-.9 1.9-1.9v-4.8c.3-2 1.3-3.2 3-3.6l.3-.1c3.9-1.1 3.4-4.6 3.4-4.6z"/></g></svg>