<svg xmlns="http://www.w3.org/2000/svg" viewBox="0 0 490 79.3" enable-background="new 0 0 490 79.3"><path fill="#7AC043" d="M2.6 60.1c-1.5-.9-2.6-2.5-2.6-4.6 0-3 2.3-5.3 5.3-5.3 1 0 1.9.3 2.7.7 4.5 2.8 9 4.2 12.8 4.2 3.9 0 5.7-1.4 5.7-3.5v-.2c0-2.9-4.6-3.9-9.8-5.5-6.7-1.9-14.2-5-14.2-14.2v-.2c0-9.6 7.8-15 17.4-15 5 0 10.1 1.3 14.7 3.6 1.9 1 3.2 2.7 3.2 5.1 0 3-2.4 5.3-5.4 5.3-1 0-1.6-.2-2.5-.6-3.8-1.9-7.4-3-10.3-3-3.3 0-5 1.4-5 3.3v.2c0 2.7 4.5 3.9 9.7 5.7 6.6 2.2 14.3 5.4 14.3 14.1v.2c0 10.5-7.9 15.3-18.1 15.3-5.9-.2-12.2-1.9-17.9-5.6zM44.6 23.4c0-3.7 3-6.7 6.7-6.7s6.7 3 6.7 6.7v.6c3.3-4.4 7.8-7.7 14.8-7.7 11.1 0 21.6 8.7 21.6 24.5v.2c0 15.8-10.4 24.5-21.6 24.5-7.2 0-11.6-3.3-14.8-7.1v14.2c0 3.7-3 6.7-6.7 6.7s-6.7-3-6.7-6.7v-49.2zm36.4 17.6v-.2c0-7.9-5.3-13.1-11.6-13.1s-11.5 5.2-11.5 13.1v.2c0 7.9 5.2 13.1 11.5 13.1s11.6-5.2 11.6-13.1zM132.9 41.2v-.2c0-13.6 11-24.7 25.8-24.7 14.7 0 25.6 10.9 25.6 24.5v.2c0 13.6-11 24.7-25.7 24.7-14.8 0-25.7-10.9-25.7-24.5zm38 0v-.2c0-7-5-13.1-12.5-13.1-7.7 0-12.3 5.9-12.3 12.9v.2c0 7 5 13.1 12.5 13.1 7.7 0 12.3-6 12.3-12.9zM233.7 58.4c0 3.7-3 6.7-6.7 6.7s-6.7-3-6.7-6.7v-.5c-3.1 4-7.1 7.6-13.9 7.6-10.2 0-16.1-6.7-16.1-17.6v-24.5c0-3.7 3-6.7 6.7-6.7s6.7 3 6.7 6.7v20.3c0 6.4 3 9.6 8.1 9.6s8.4-3.3 8.4-9.6v-20.3c0-3.7 3-6.7 6.7-6.7s6.7 3 6.7 6.7v35zM240.5 51.2v-40c0-3.7 3-6.7 6.7-6.7s6.7 3 6.7 6.7v5.9h5.9c3.2 0 5.8 2.6 5.8 5.8 0 3.2-2.6 5.8-5.8 5.8h-5.8v20.3c0 3.1 1.3 4.6 4.3 4.6.4 0 1.3-.1 1.6-.1 3 0 5.6 2.5 5.6 5.6 0 2.4-1.6 4.3-3.4 5-2.5 1-4.8 1.3-7.7 1.3-8.3 0-13.9-3.3-13.9-14.2z"/><path fill="#fff" d="M293.6 65.5c-6.6 0-13.8-2.6-18.9-6.7l3.4-4.9c5 3.7 10.4 5.8 15.8 5.8 5.5 0 9.5-2.8 9.5-7.3v-.2c0-4.6-5.4-6.4-11.4-8.1-7.2-2-15.1-4.5-15.1-12.9v-.2c0-7.9 6.6-13.1 15.6-13.1 5.6 0 11.8 1.9 16.5 5l-3.1 5.1c-4.2-2.7-9.1-4.4-13.5-4.4-5.4 0-8.8 2.8-8.8 6.6v.2c0 4.3 5.7 6 11.8 7.9 7.1 2.1 14.7 4.9 14.7 13.1v.2c-.2 8.8-7.4 13.9-16.5 13.9zM339 65.7c-13.7 0-23.7-10.8-23.7-23.8s10.1-24 23.9-24c13.7 0 23.8 10.8 23.8 23.8s-10.2 24-24 24zm0-41.8c-9.9 0-16.7 7.9-16.7 17.8s7.3 17.9 16.9 17.9c9.9 0 16.8-7.9 16.8-17.7 0-10-7.4-18-17-18zM391.4 65.7c-13.4 0-23.5-10.9-23.5-23.8 0-13 10.1-24 23.5-24 8.7 0 14.1 3.6 18.3 8.1l-4.5 4.8c-3.6-3.8-7.7-6.9-13.9-6.9-9.3 0-16.4 7.9-16.4 17.8 0 10 7.3 17.9 16.8 17.9 5.8 0 10.3-2.9 14-6.8l4.3 4.1c-4.5 5-10 8.8-18.6 8.8zM417.1 8.9v-7.6h7.8v7.5h-7.8zm.4 55.7v-45.8h6.8v45.8h-6.8zM438.4 27.6l-2-5.6c5-2.3 10-3.8 16.6-3.8 12.5 0 19.5 6.4 19.5 18.4v28h-6.6v-6.9c-3.2 4.2-8.5 7.9-16.5 7.9-8.5 0-17.1-4.8-17.1-14.3 0-9.7 8-14.9 19.6-14.9 5.8 0 10 .8 14.1 1.9v-1.6c0-8.2-5-12.5-13.6-12.5-5.5 0-9.7 1.5-14 3.4zm.8 23.4c0 5.8 5.3 9.2 11.5 9.2 8.4 0 15.3-5.1 15.3-12.4v-4.4c-3.4-1-7.9-1.9-13.5-1.9-8.5-.1-13.3 3.6-13.3 9.5zM483.2 64.6v-64.6h6.8v64.6h-6.8z"/><path fill="#7AC043" d="M137.7 12.7s-5.9 2.6-11 2.5c-5-.1-7.4 2.4-7.4 2.4-2.1 1.5-3.9 4.2-5.1 7v-1.2c0-3.7-3-6.7-6.7-6.7s-6.7 3-6.7 6.7v35c0 3.7 3 6.7 6.7 6.7s6.7-3 6.7-6.7v-16.6c1-7.1 4.6-11.2 10.5-12.5l1-.3c13.5-4 12-16.3 12-16.3z"/></svg>